<?xml version="1.0" encoding="UTF-8"?>
<svg version="1.1" xmlns="http://www.w3.org/2000/svg" width="232" height="156">
<path d="M0 0 C76.56 0 153.12 0 232 0 C232 51.48 232 102.96 232 156 C155.44 156 78.88 156 0 156 C0 104.52 0 53.04 0 0 Z " fill="#0D0D0D" transform="translate(0,0)"/>
<path d="M0 0 C3.125 0.25 3.125 0.25 4.9375 1.625 C6.125 3.25 6.125 3.25 7.125 5.25 C8.115 5.58 9.105 5.91 10.125 6.25 C10.455 4.6 10.785 2.95 11.125 1.25 C13.6 0.755 13.6 0.755 16.125 0.25 C16.125 9.16 16.125 18.07 16.125 27.25 C14.64 27.745 14.64 27.745 13.125 28.25 C11.89102591 30.83344346 11.89102591 30.83344346 10.92578125 34.06640625 C10.32576294 35.90501221 10.32576294 35.90501221 9.71362305 37.78076172 C9.28810309 39.12462838 8.86273266 40.4685424 8.4375 41.8125 C7.9892598 43.19847546 7.53978366 44.58405176 7.08911133 45.96923828 C6.1807978 48.7647814 5.27811586 51.56204214 4.37988281 54.36083984 C2.7382628 59.46491808 1.02442551 64.54416624 -0.6875 69.625 C-6.5416341 87.12517393 -12.18668713 104.69540808 -17.875 122.25 C-20.79239927 119.33260073 -21.49914707 116.1274037 -22.875 112.25 C-21.885 116.54 -20.895 120.83 -19.875 125.25 C-18.885 125.25 -17.895 125.25 -16.875 125.25 C-16.75133057 124.56204346 -16.62766113 123.87408691 -16.50024414 123.1652832 C-15.8013157 119.90643724 -14.8647194 116.78714502 -13.87109375 113.60546875 C-13.67237671 112.96771011 -13.47365967 112.32995148 -13.2689209 111.67286682 C-12.61974302 109.59347089 -11.96638985 107.51541862 -11.3125 105.4375 C-11.08813263 104.72170776 -10.86376526 104.00591553 -10.63259888 103.26843262 C-7.47574068 93.19980356 -4.23054781 83.16522647 -0.85644531 73.16699219 C0.97813865 67.72259994 2.77110792 62.26688724 4.515625 56.79296875 C4.71776108 56.15942474 4.91989716 55.52588074 5.12815857 54.87313843 C6.11317782 51.78315161 7.09371922 48.69183358 8.06860352 45.59863281 C8.60118774 43.92365723 8.60118774 43.92365723 9.14453125 42.21484375 C9.45495361 41.2312085 9.76537598 40.24757324 10.08520508 39.23413086 C11.26650544 35.84389034 12.7107693 32.54987164 14.125 29.25 C24.685 29.25 35.245 29.25 46.125 29.25 C46.125 30.57 46.125 31.89 46.125 33.25 C45.42632812 33.37117188 44.72765625 33.49234375 44.0078125 33.6171875 C43.09773437 33.78476562 42.18765625 33.95234375 41.25 34.125 C40.34507812 34.28742187 39.44015625 34.44984375 38.5078125 34.6171875 C35.95994012 35.08044703 35.95994012 35.08044703 34.125 37.25 C33.82472491 39.23323684 33.82472491 39.23323684 33.87776184 41.53918457 C33.87356735 42.43935806 33.86937286 43.33953156 33.86505127 44.26698303 C33.87067078 45.25717941 33.87629028 46.24737579 33.88208008 47.26757812 C33.87923256 48.8286454 33.87923256 48.8286454 33.87632751 50.42124939 C33.87261111 53.87465862 33.88333629 57.32785934 33.89453125 60.78125 C33.89572267 63.17256648 33.89617629 65.56388343 33.8959198 67.9552002 C33.89748616 72.97227905 33.9057875 77.98928671 33.91918945 83.00634766 C33.93617948 89.44963754 33.94000388 95.89284909 33.93924427 102.33615875 C33.93951571 107.27566277 33.9449928 112.21514953 33.95224571 117.15464783 C33.95543645 119.53099944 33.95740073 121.90735302 33.95813942 124.28370667 C33.96029869 127.59997922 33.96903402 130.91616735 33.97973633 134.23242188 C33.97928314 135.22261826 33.97882996 136.21281464 33.97836304 137.23301697 C33.98476051 138.58327721 33.98476051 138.58327721 33.99128723 139.96081543 C33.99296308 140.745429 33.99463892 141.53004257 33.99636555 142.33843231 C34.00721983 144.3362329 34.00721983 144.3362329 35.125 146.25 C37.65233235 146.90555119 37.65233235 146.90555119 40.125 147.25 C40.39054688 146.10402344 40.65609375 144.95804688 40.9296875 143.77734375 C41.28636742 142.24737464 41.64314337 140.71742791 42 139.1875 C42.17402344 138.43533203 42.34804687 137.68316406 42.52734375 136.90820312 C43.60164764 132.31256983 44.79034057 127.77702051 46.125 123.25 C47.445 123.25 48.765 123.25 50.125 123.25 C50.455 125.23 50.785 127.21 51.125 129.25 C49.805 129.58 48.485 129.91 47.125 130.25 C45.805 135.86 44.485 141.47 43.125 147.25 C46.095 147.25 49.065 147.25 52.125 147.25 C51.9084375 145.1153125 51.9084375 145.1153125 51.6875 142.9375 C51.60628906 142.13699219 51.52507812 141.33648437 51.44140625 140.51171875 C51.17234307 138.08912821 51.17234307 138.08912821 50.125 135.25 C51.115 135.58 52.105 135.91 53.125 136.25 C54.07998038 138.79661435 54.65029928 141.35601602 55.28125 144 C55.69890625 145.11375 55.69890625 145.11375 56.125 146.25 C57.115 146.58 58.105 146.91 59.125 147.25 C59.125 139.66 59.125 132.07 59.125 124.25 C58.465 124.25 57.805 124.25 57.125 124.25 C57.125 123.59 57.125 122.93 57.125 122.25 C59.435 122.25 61.745 122.25 64.125 122.25 C64.125 122.91 64.125 123.57 64.125 124.25 C63.465 124.25 62.805 124.25 62.125 124.25 C62.455 126.89 62.785 129.53 63.125 132.25 C63.929375 131.321875 64.73375 130.39375 65.5625 129.4375 C66.24119141 128.65439453 66.24119141 128.65439453 66.93359375 127.85546875 C68.33371231 126.14287029 68.33371231 126.14287029 69.125 123.25 C70.445 123.58 71.765 123.91 73.125 124.25 C72.75246094 124.68570313 72.37992188 125.12140625 71.99609375 125.5703125 C68.92142431 129.4091733 68.92142431 129.4091733 68 134.125 C70.6416226 141.81574037 70.6416226 141.81574037 76.125 147.25 C75.795 139.33 75.465 131.41 75.125 123.25 C81.395 123.25 87.665 123.25 94.125 123.25 C94.125 130.84 94.125 138.43 94.125 146.25 C96.435 146.91 98.745 147.57 101.125 148.25 C101.455 147.59 101.785 146.93 102.125 146.25 C105.095 147.24 105.095 147.24 108.125 148.25 C108.125 149.57 108.125 150.89 108.125 152.25 C73.475 152.25 38.825 152.25 3.125 152.25 C3.125 150.93 3.125 149.61 3.125 148.25 C3.97964844 148.12882813 4.83429688 148.00765625 5.71484375 147.8828125 C7.37193359 147.63144531 7.37193359 147.63144531 9.0625 147.375 C10.71572266 147.13136719 10.71572266 147.13136719 12.40234375 146.8828125 C13.75005859 146.56957031 13.75005859 146.56957031 15.125 146.25 C16.82694463 142.84611074 16.30610512 138.95730593 16.33032227 135.21044922 C16.34022186 134.27381439 16.35012146 133.33717957 16.36032104 132.37216187 C16.39198922 129.26636307 16.41671448 126.16054896 16.44140625 123.0546875 C16.46197119 120.90519811 16.48296753 118.75571281 16.50437927 116.60623169 C16.5596475 110.94109399 16.60903581 105.27591951 16.65722656 99.61071777 C16.70740694 93.83289302 16.76311106 88.05512187 16.81835938 82.27734375 C16.92599904 70.93494159 17.02743109 59.59249295 17.125 48.25 C16.135 48.25 15.145 48.25 14.125 48.25 C14.01089783 48.80293228 13.89679565 49.35586456 13.77923584 49.92555237 C12.64140803 55.26130307 11.22601842 60.41182514 9.515625 65.58984375 C9.2663324 66.35567276 9.01703979 67.12150177 8.76019287 67.91053772 C7.96905166 70.33749386 7.17209 72.76249204 6.375 75.1875 C5.85639784 76.77657103 5.33816636 78.36576308 4.8203125 79.95507812 C1.79554118 89.22449256 -1.27693063 98.47774853 -4.36621094 107.72583008 C-5.66009839 111.60122624 -6.94528936 115.47944794 -8.2276001 119.35868835 C-9.26486851 122.49606176 -10.30470405 125.63258162 -11.34472656 128.76904297 C-11.87309764 130.36440622 -12.40041025 131.96012035 -12.92675781 133.55615234 C-13.70356897 135.91077225 -14.48421597 138.2640901 -15.265625 140.6171875 C-15.61563568 141.6827034 -15.61563568 141.6827034 -15.97271729 142.76974487 C-17.06879919 146.05874071 -18.20281044 149.20708329 -19.875 152.25 C-21.855 152.25 -23.835 152.25 -25.875 152.25 C-27.16234407 148.31911162 -28.44392842 144.38639726 -29.72021484 140.4519043 C-30.15515954 139.11382499 -30.59167209 137.77625426 -31.02978516 136.43920898 C-31.65940139 134.51680931 -32.28290843 132.59241216 -32.90625 130.66796875 C-33.28330078 129.51063232 -33.66035156 128.3532959 -34.04882812 127.16088867 C-34.875 124.25 -34.875 124.25 -34.875 121.25 C-35.535 121.25 -36.195 121.25 -36.875 121.25 C-36.64312988 121.96542969 -36.41125977 122.68085937 -36.17236328 123.41796875 C-35.1121743 126.69443485 -34.05605812 129.97220024 -33 133.25 C-32.63519531 134.37535156 -32.27039063 135.50070313 -31.89453125 136.66015625 C-31.36279297 138.31337891 -31.36279297 138.31337891 -30.8203125 140 C-30.49562988 141.00546875 -30.17094727 142.0109375 -29.83642578 143.046875 C-28.72598629 146.74646011 -27.81182837 150.50268651 -26.875 154.25 C-33.145 154.25 -39.415 154.25 -45.875 154.25 C-45.875 151.61 -45.875 148.97 -45.875 146.25 C-46.48988281 146.28480469 -47.10476562 146.31960937 -47.73828125 146.35546875 C-48.54652344 146.38253906 -49.35476562 146.40960938 -50.1875 146.4375 C-50.98800781 146.47230469 -51.78851563 146.50710937 -52.61328125 146.54296875 C-54.875 146.25 -54.875 146.25 -56.49804688 145.05078125 C-58.34114043 142.64038089 -58.2201892 141.15591028 -58.16796875 138.14453125 C-58.1534668 136.67016602 -58.1534668 136.67016602 -58.13867188 135.16601562 C-58.11353516 134.14185547 -58.08839844 133.11769531 -58.0625 132.0625 C-58.04896484 131.02673828 -58.03542969 129.99097656 -58.02148438 128.92382812 C-57.98611389 126.36536301 -57.93675544 123.8079422 -57.875 121.25 C-57.19953125 121.18941406 -56.5240625 121.12882812 -55.828125 121.06640625 C-54.49007812 120.94072266 -54.49007812 120.94072266 -53.125 120.8125 C-52.24328125 120.73128906 -51.3615625 120.65007812 -50.453125 120.56640625 C-48.18149548 120.28761535 -46.07648177 119.86209423 -43.875 119.25 C-43.875 118.59 -43.875 117.93 -43.875 117.25 C-48.495 117.25 -53.115 117.25 -57.875 117.25 C-57.94383128 121.20142546 -58.0035718 125.15132632 -58.03979492 129.10302734 C-58.06232251 131.10919374 -58.1004357 133.11516526 -58.13867188 135.12109375 C-58.15317383 137.00634766 -58.15317383 137.00634766 -58.16796875 138.9296875 C-58.19153442 140.67354736 -58.19153442 140.67354736 -58.21557617 142.45263672 C-58.10318604 143.3757666 -57.9907959 144.29889648 -57.875 145.25 C-54.97407498 147.18395001 -53.97825263 147.55131941 -50.6875 147.875 C-48.8003125 148.060625 -48.8003125 148.060625 -46.875 148.25 C-46.875 149.57 -46.875 150.89 -46.875 152.25 C-56.775 152.25 -66.675 152.25 -76.875 152.25 C-76.875 150.93 -76.875 149.61 -76.875 148.25 C-76.16472656 148.12882813 -75.45445313 148.00765625 -74.72265625 147.8828125 C-73.80355469 147.71523437 -72.88445312 147.54765625 -71.9375 147.375 C-71.02097656 147.21257812 -70.10445312 147.05015625 -69.16015625 146.8828125 C-68.02900391 146.56957031 -68.02900391 146.56957031 -66.875 146.25 C-65.29570193 143.09140385 -65.6950366 139.69051926 -65.66967773 136.22021484 C-65.65482834 134.97619652 -65.65482834 134.97619652 -65.63967896 133.70704651 C-65.60802336 130.95837281 -65.58329051 128.20968182 -65.55859375 125.4609375 C-65.53802773 123.55807031 -65.51703135 121.65520773 -65.49562073 119.75234985 C-65.44036373 114.73823775 -65.39097047 109.72408418 -65.34277344 104.7098999 C-65.29258488 99.59562478 -65.23688502 94.48141006 -65.18164062 89.3671875 C-65.07401469 79.32817657 -64.97257958 69.28911325 -64.875 59.25 C-63.225 58.59 -61.575 57.93 -59.875 57.25 C-59.875 55.93 -59.875 54.61 -59.875 53.25 C-72.085 53.25 -84.295 53.25 -96.875 53.25 C-96.9438109 46.61102244 -97.00356348 39.97327836 -97.03979492 33.33422852 C-97.05489602 31.07507132 -97.07537842 28.81594351 -97.10131836 26.55688477 C-97.13764308 23.31258907 -97.15471308 20.06868044 -97.16796875 16.82421875 C-97.18345261 15.81163498 -97.19893646 14.79905121 -97.21488953 13.75578308 C-97.21522942 12.34465996 -97.21522942 12.34465996 -97.21557617 10.9050293 C-97.22223801 10.07674118 -97.22889984 9.24845306 -97.23576355 8.39506531 C-96.78192928 5.69661046 -96.08991418 4.82933147 -93.875 3.25 C-91.98704529 2.86231995 -91.98704529 2.86231995 -89.83764648 2.84594727 C-89.02927841 2.83326309 -88.22091034 2.82057892 -87.38804626 2.80751038 C-86.51620193 2.81044601 -85.6443576 2.81338165 -84.74609375 2.81640625 C-83.84182144 2.8111644 -82.93754913 2.80592255 -82.00587463 2.80052185 C-80.08848089 2.79409467 -78.17104775 2.79544763 -76.25366211 2.80395508 C-73.34740858 2.81239858 -70.44316527 2.78382265 -67.53710938 2.75195312 C-46.86730491 2.67153846 -46.86730491 2.67153846 -39.96655273 9.00024414 C-34.44357501 14.85532913 -33.39126301 20.58264935 -33.47265625 28.46875 C-34.20552593 35.35630198 -36.54193529 41.75908067 -38.875 48.25 C-36.00552901 48.95331762 -36.00552901 48.95331762 -32.875 49.25 C-30.10430256 47.06268079 -30.10430256 47.06268079 -27.875 44.25 C-27.11316406 43.61384766 -27.11316406 43.61384766 -26.3359375 42.96484375 C-24.26530854 40.53434612 -23.88581729 38.15504799 -23.1875 35.0625 C-22.93613281 33.97582031 -22.68476562 32.88914063 -22.42578125 31.76953125 C-22.24402344 30.93808594 -22.06226562 30.10664063 -21.875 29.25 C-21.10833008 29.23018066 -20.34166016 29.21036133 -19.55175781 29.18994141 C-16.07582781 29.09464554 -12.60049494 28.98498402 -9.125 28.875 C-7.31515625 28.82859375 -7.31515625 28.82859375 -5.46875 28.78125 C-4.30859375 28.74257813 -3.1484375 28.70390625 -1.953125 28.6640625 C-0.35065918 28.61693115 -0.35065918 28.61693115 1.28417969 28.56884766 C4.08346057 28.2546623 5.78088649 27.78122447 8.125 26.25 C9.23147808 24.03704384 9.32088368 22.70327301 9.375 20.25 C9.40078125 19.54875 9.4265625 18.8475 9.453125 18.125 C9.34484375 17.50625 9.2365625 16.8875 9.125 16.25 C8.135 15.59 7.145 14.93 6.125 14.25 C6.125 13.59 6.125 12.93 6.125 12.25 C5.42375 12.1675 4.7225 12.085 4 12 C0.47227053 11.07972275 -1.93611614 9.36873023 -4.875 7.25 C-3.84500937 0.33434864 -3.84500937 0.33434864 0 0 Z M-38.875 113.25 C-38.545 113.91 -38.215 114.57 -37.875 115.25 C-37.545 114.59 -37.215 113.93 -36.875 113.25 C-37.535 113.25 -38.195 113.25 -38.875 113.25 Z M-40.875 114.25 C-41.205 114.91 -41.535 115.57 -41.875 116.25 C-40.885 115.92 -39.895 115.59 -38.875 115.25 C-39.535 114.92 -40.195 114.59 -40.875 114.25 Z " fill="#090909" transform="translate(115.875,1.75)"/>
<path d="M0 0 C22.77 0 45.54 0 69 0 C69 51.48 69 102.96 69 156 C67.02 156 65.04 156 63 156 C62.9175 154.88625 62.835 153.7725 62.75 152.625 C62.5025 151.42875 62.255 150.2325 62 149 C61.360625 148.690625 60.72125 148.38125 60.0625 148.0625 C58 147 58 147 56.953125 144.8359375 C56.72109375 144.02382812 56.4890625 143.21171875 56.25 142.375 C56.00765625 141.55773437 55.7653125 140.74046875 55.515625 139.8984375 C55.34546875 139.27195313 55.1753125 138.64546875 55 138 C55.48855469 137.59910156 55.97710937 137.19820312 56.48046875 136.78515625 C58.40183551 134.52792075 58.37513515 133.36207962 58.3125 130.4375 C58.30863281 129.65246094 58.30476563 128.86742187 58.30078125 128.05859375 C58.17703023 125.77873166 58.17703023 125.77873166 56 124 C53.85947498 123.66965172 53.85947498 123.66965172 51.36669922 123.68115234 C50.40585419 123.66128265 49.44500916 123.64141296 48.45504761 123.62094116 C47.41542877 123.60938995 46.37580994 123.59783875 45.3046875 123.5859375 C44.24210724 123.56657135 43.17952698 123.5472052 42.08474731 123.5272522 C38.68158057 123.46733916 35.27838022 123.42102402 31.875 123.375 C29.5715996 123.33683103 27.26821364 123.29777995 24.96484375 123.2578125 C19.31002372 123.16162813 13.65511717 123.07661519 8 123 C8 124.32 8 125.64 8 127 C8.66 127 9.32 127 10 127 C10 132.94 10 138.88 10 145 C8.16446204 142.24669306 7.59221871 140.88342796 6.9296875 137.76953125 C6.75566406 136.96708984 6.58164063 136.16464844 6.40234375 135.33789062 C6.14130859 134.08782227 6.14130859 134.08782227 5.875 132.8125 C5.69324219 131.96751953 5.51148438 131.12253906 5.32421875 130.25195312 C4.87707247 128.1691928 4.43777624 126.08474994 4 124 C2.02 124 0.04 124 -2 124 C-3.98 131.59 -5.96 139.18 -8 147 C-9.32 146.67 -10.64 146.34 -12 146 C-12.07002176 132.08351139 -12.12275523 118.16705001 -12.15543652 104.25042152 C-12.17111876 97.78895602 -12.19240374 91.32760851 -12.22631836 84.86621094 C-12.25882049 78.63520517 -12.27683371 72.40431319 -12.28463173 66.17322922 C-12.29019171 63.79127586 -12.30104834 61.40932901 -12.31719017 59.02742386 C-12.33884267 55.70124916 -12.34197202 52.37554978 -12.34057617 49.04931641 C-12.35675491 47.5593087 -12.35675491 47.5593087 -12.3732605 46.03919983 C-12.36913651 45.13613602 -12.36501251 44.2330722 -12.36076355 43.30264282 C-12.36352893 42.51543161 -12.36629431 41.72822041 -12.36914349 40.91715431 C-12.24732614 40.28449339 -12.12550879 39.65183247 -12 39 C-8.96474514 36.97649676 -7.80573798 36.67875982 -4.3125 36.375 C-3.50425781 36.30023438 -2.69601563 36.22546875 -1.86328125 36.1484375 C-1.24839844 36.09945312 -0.63351563 36.05046875 0 36 C0 34.02 0 32.04 0 30 C-1.65 29.67 -3.3 29.34 -5 29 C-4.67 28.01 -4.34 27.02 -4 26 C-3.85110253 24.15533558 -3.7520899 22.30642725 -3.68359375 20.45703125 C-3.64169922 19.38388672 -3.59980469 18.31074219 -3.55664062 17.20507812 C-3.51732422 16.08552734 -3.47800781 14.96597656 -3.4375 13.8125 C-3.39431641 12.68134766 -3.35113281 11.55019531 -3.30664062 10.38476562 C-3.20050901 7.58996646 -3.09845615 4.79507838 -3 2 C-2.01 2 -1.02 2 0 2 C0 1.34 0 0.68 0 0 Z " fill="#FEFEFE" transform="translate(163,0)"/>
<path d="M0 0 C10.56 0 21.12 0 32 0 C32 1.32 32 2.64 32 4 C31.30132812 4.12117188 30.60265625 4.24234375 29.8828125 4.3671875 C28.97273438 4.53476562 28.06265625 4.70234375 27.125 4.875 C25.76761719 5.11863281 25.76761719 5.11863281 24.3828125 5.3671875 C21.83494012 5.83044703 21.83494012 5.83044703 20 8 C19.69972491 9.98323684 19.69972491 9.98323684 19.75276184 12.28918457 C19.74856735 13.18935806 19.74437286 14.08953156 19.74005127 15.01698303 C19.74567078 16.00717941 19.75129028 16.99737579 19.75708008 18.01757812 C19.75423256 19.5786454 19.75423256 19.5786454 19.75132751 21.17124939 C19.74761111 24.62465862 19.75833629 28.07785934 19.76953125 31.53125 C19.77072267 33.92256648 19.77117629 36.31388343 19.7709198 38.7052002 C19.77248616 43.72227905 19.7807875 48.73928671 19.79418945 53.75634766 C19.81117948 60.19963754 19.81500388 66.64284909 19.81424427 73.08615875 C19.81451571 78.02566277 19.8199928 82.96514953 19.82724571 87.90464783 C19.83043645 90.28099944 19.83240073 92.65735302 19.83313942 95.03370667 C19.83529869 98.34997922 19.84403402 101.66616735 19.85473633 104.98242188 C19.85405655 106.46771645 19.85405655 106.46771645 19.85336304 107.98301697 C19.85976051 109.33327721 19.85976051 109.33327721 19.86628723 110.71081543 C19.86796308 111.495429 19.86963892 112.28004257 19.87136555 113.08843231 C19.88221983 115.0862329 19.88221983 115.0862329 21 117 C23.52733235 117.65555119 23.52733235 117.65555119 26 118 C26.39832031 116.28103516 26.39832031 116.28103516 26.8046875 114.52734375 C27.16136742 112.99737464 27.51814337 111.46742791 27.875 109.9375 C28.04902344 109.18533203 28.22304687 108.43316406 28.40234375 107.65820312 C29.47664764 103.06256983 30.66534057 98.52702051 32 94 C33.32 94 34.64 94 36 94 C36.33 95.98 36.66 97.96 37 100 C35.68 100.33 34.36 100.66 33 101 C31.68 106.61 30.36 112.22 29 118 C31.97 118 34.94 118 38 118 C37.7834375 115.8653125 37.7834375 115.8653125 37.5625 113.6875 C37.48128906 112.88699219 37.40007812 112.08648437 37.31640625 111.26171875 C37.04734307 108.83912821 37.04734307 108.83912821 36 106 C37.485 106.495 37.485 106.495 39 107 C39.95498038 109.54661435 40.52529928 112.10601602 41.15625 114.75 C41.4346875 115.4925 41.713125 116.235 42 117 C43.485 117.495 43.485 117.495 45 118 C45 110.41 45 102.82 45 95 C44.34 95 43.68 95 43 95 C43 94.34 43 93.68 43 93 C45.31 93 47.62 93 50 93 C50 93.66 50 94.32 50 95 C49.34 95 48.68 95 48 95 C48.495 98.96 48.495 98.96 49 103 C49.804375 102.071875 50.60875 101.14375 51.4375 100.1875 C51.88996094 99.66542969 52.34242188 99.14335937 52.80859375 98.60546875 C54.20871231 96.89287029 54.20871231 96.89287029 55 94 C56.98 94.495 56.98 94.495 59 95 C58.62746094 95.43570313 58.25492187 95.87140625 57.87109375 96.3203125 C54.79642431 100.1591733 54.79642431 100.1591733 53.875 104.875 C56.5166226 112.56574037 56.5166226 112.56574037 62 118 C61.67 110.08 61.34 102.16 61 94 C67.27 94 73.54 94 80 94 C80 101.59 80 109.18 80 117 C82.31 117.66 84.62 118.32 87 119 C87.33 118.34 87.66 117.68 88 117 C90.97 117.99 90.97 117.99 94 119 C94 120.32 94 121.64 94 123 C59.35 123 24.7 123 -11 123 C-11 121.68 -11 120.36 -11 119 C-10.14535156 118.87882812 -9.29070312 118.75765625 -8.41015625 118.6328125 C-7.30542969 118.46523437 -6.20070312 118.29765625 -5.0625 118.125 C-3.96035156 117.96257812 -2.85820313 117.80015625 -1.72265625 117.6328125 C-0.37494141 117.31957031 -0.37494141 117.31957031 1 117 C2.70194463 113.59611074 2.18110512 109.70730593 2.20532227 105.96044922 C2.21522186 105.02381439 2.22512146 104.08717957 2.23532104 103.12216187 C2.26698922 100.01636307 2.29171448 96.91054896 2.31640625 93.8046875 C2.33697119 91.65519811 2.35796753 89.50571281 2.37937927 87.35623169 C2.4346475 81.69109399 2.48403581 76.02591951 2.53222656 70.36071777 C2.58240694 64.58289302 2.63811106 58.80512187 2.69335938 53.02734375 C2.80099904 41.68494159 2.90243109 30.34249295 3 19 C2.01 19 1.02 19 0 19 C-0.11410217 19.55293228 -0.22820435 20.10586456 -0.34576416 20.67555237 C-1.48359197 26.01130307 -2.89898158 31.16182514 -4.609375 36.33984375 C-4.8586676 37.10567276 -5.10796021 37.87150177 -5.36480713 38.66053772 C-6.15594834 41.08749386 -6.95291 43.51249204 -7.75 45.9375 C-8.26860216 47.52657103 -8.78683364 49.11576308 -9.3046875 50.70507812 C-12.32945882 59.97449256 -15.40193063 69.22774853 -18.49121094 78.47583008 C-19.78509839 82.35122624 -21.07028936 86.22944794 -22.3526001 90.10868835 C-23.38986851 93.24606176 -24.42970405 96.38258162 -25.46972656 99.51904297 C-25.99809764 101.11440622 -26.52541025 102.71012035 -27.05175781 104.30615234 C-27.82856897 106.66077225 -28.60921597 109.0140901 -29.390625 111.3671875 C-29.62396545 112.07753143 -29.85730591 112.78787537 -30.09771729 113.51974487 C-31.19379919 116.80874071 -32.32781044 119.95708329 -34 123 C-35.98 123 -37.96 123 -40 123 C-41.42976783 118.64186993 -42.85377068 114.28191474 -44.27246094 109.92016602 C-44.75590503 108.43657667 -45.24092125 106.95349866 -45.72753906 105.47094727 C-46.42666824 103.34003007 -47.12012543 101.20733874 -47.8125 99.07421875 C-48.14060669 98.0803138 -48.14060669 98.0803138 -48.4753418 97.06632996 C-49.38547586 94.24594445 -50 91.98600866 -50 89 C-46 87 -42 85 -38 83 C-37.32942113 84.7902061 -36.6636531 86.58221489 -36 88.375 C-35.62875 89.37273437 -35.2575 90.37046875 -34.875 91.3984375 C-34 94 -34 94 -34 96 C-33.01 96 -32.02 96 -31 96 C-30.81449585 94.96806519 -30.81449585 94.96806519 -30.62524414 93.9152832 C-29.9263157 90.65643724 -28.9897194 87.53714502 -27.99609375 84.35546875 C-27.79737671 83.71771011 -27.59865967 83.07995148 -27.3939209 82.42286682 C-26.74474302 80.34347089 -26.09138985 78.26541862 -25.4375 76.1875 C-25.21313263 75.47170776 -24.98876526 74.75591553 -24.75759888 74.01843262 C-21.60074068 63.94980356 -18.35554781 53.91522647 -14.98144531 43.91699219 C-13.14686135 38.47259994 -11.35389208 33.01688724 -9.609375 27.54296875 C-9.40723892 26.90942474 -9.20510284 26.27588074 -8.99684143 25.62313843 C-8.01182218 22.53315161 -7.03128078 19.44183358 -6.05639648 16.34863281 C-5.70134033 15.23198242 -5.34628418 14.11533203 -4.98046875 12.96484375 C-4.67004639 11.9812085 -4.35962402 10.99757324 -4.03979492 9.98413086 C-2.85849456 6.59389034 -1.4142307 3.29987164 0 0 Z " fill="#FAFAFA" transform="translate(130,31)"/>
<path d="M0 0 C0.80836807 -0.01268417 1.61673615 -0.02536835 2.44960022 -0.03843689 C3.32144455 -0.03550125 4.19328888 -0.03256561 5.09155273 -0.02954102 C5.99582504 -0.03478287 6.90009735 -0.04002472 7.83177185 -0.04542542 C9.74916559 -0.05185259 11.66659873 -0.05049963 13.58398438 -0.04199219 C16.4902379 -0.03354869 19.39448122 -0.06212462 22.30053711 -0.09399414 C42.97034158 -0.17440881 42.97034158 -0.17440881 49.87109375 6.15429688 C55.56474049 12.19031353 56.34907529 17.93403794 56.22045898 26.03686523 C55.73369133 32.39434576 54.37417156 38.6003921 49.96264648 43.40405273 C48.97264648 43.40405273 47.98264648 43.40405273 46.96264648 43.40405273 C46.12602786 40.61333204 45.29321912 37.82157261 44.46264648 35.02905273 C44.22416992 34.23499023 43.98569336 33.44092773 43.73999023 32.62280273 C43.5144043 31.86225586 43.28881836 31.10170898 43.05639648 30.31811523 C42.84692383 29.61638184 42.63745117 28.91464844 42.42163086 28.19165039 C41.96264648 26.40405273 41.96264648 26.40405273 41.96264648 24.40405273 C32.06264648 24.73405273 22.16264648 25.06405273 11.96264648 25.40405273 C11.63264648 27.71405273 11.30264648 30.02405273 10.96264648 32.40405273 C11.5775293 32.38084961 12.19241211 32.35764648 12.82592773 32.33374023 C13.63416992 32.31569336 14.44241211 32.29764648 15.27514648 32.27905273 C16.4759082 32.24424805 16.4759082 32.24424805 17.70092773 32.20874023 C19.96264648 32.40405273 19.96264648 32.40405273 22.96264648 34.40405273 C23.18514128 37.2104538 23.24353129 39.73522166 23.15014648 42.52905273 C23.08827148 45.12780273 23.02639648 47.72655273 22.96264648 50.40405273 C13.06264648 50.40405273 3.16264648 50.40405273 -7.03735352 50.40405273 C-7.10616442 43.76507518 -7.16591699 37.12733109 -7.20214844 30.48828125 C-7.21724954 28.22912406 -7.23773194 25.96999624 -7.26367188 23.7109375 C-7.29999659 20.46664181 -7.3170666 17.22273318 -7.33032227 13.97827148 C-7.34580612 12.96568771 -7.36128998 11.95310394 -7.37724304 10.90983582 C-7.37758293 9.49871269 -7.37758293 9.49871269 -7.37792969 8.05908203 C-7.38459152 7.23079391 -7.39125336 6.4025058 -7.39811707 5.54911804 C-6.66594739 1.19570768 -4.1468701 0.03158808 0 0 Z " fill="#F8F8F8" transform="translate(26.037353515625,4.595947265625)"/>
<path d="M0 0 C3.125 0.25 3.125 0.25 4.9375 1.625 C6.125 3.25 6.125 3.25 7.125 5.25 C8.115 5.58 9.105 5.91 10.125 6.25 C10.455 4.6 10.785 2.95 11.125 1.25 C12.775 0.92 14.425 0.59 16.125 0.25 C16.125 9.16 16.125 18.07 16.125 27.25 C15.135 27.58 14.145 27.91 13.125 28.25 C11.89102591 30.83344346 11.89102591 30.83344346 10.92578125 34.06640625 C10.52576904 35.29214355 10.12575684 36.51788086 9.71362305 37.78076172 C9.28810309 39.12462838 8.86273266 40.4685424 8.4375 41.8125 C7.9892598 43.19847546 7.53978366 44.58405176 7.08911133 45.96923828 C6.1807978 48.7647814 5.27811586 51.56204214 4.37988281 54.36083984 C2.7382628 59.46491808 1.02442551 64.54416624 -0.6875 69.625 C-6.5416341 87.12517393 -12.18668713 104.69540808 -17.875 122.25 C-20.99065955 119.13434045 -21.75779829 116.2852818 -22.25 111.9375 C-21.84603628 107.96519012 -20.79042799 105.56353098 -18.84765625 102.14453125 C-15.10677239 94.85807071 -15.97020084 84.56435681 -18 76.875 C-20.99455381 68.45712985 -25.73386967 63.80024063 -33.5078125 59.57421875 C-35.83158137 58.27428864 -37.89044986 57.02877882 -39.875 55.25 C-39.875 54.26 -39.875 53.27 -39.875 52.25 C-39.09576172 51.90388672 -39.09576172 51.90388672 -38.30078125 51.55078125 C-31.83387993 48.52651871 -27.0218662 44.84343393 -23.875 38.25 C-23.48316664 36.70025424 -23.1246261 35.1418541 -22.79296875 33.578125 C-22.53229614 32.36237793 -22.53229614 32.36237793 -22.26635742 31.12207031 C-22.13720947 30.50428711 -22.00806152 29.88650391 -21.875 29.25 C-21.10833008 29.23018066 -20.34166016 29.21036133 -19.55175781 29.18994141 C-16.07582781 29.09464554 -12.60049494 28.98498402 -9.125 28.875 C-7.31515625 28.82859375 -7.31515625 28.82859375 -5.46875 28.78125 C-4.30859375 28.74257813 -3.1484375 28.70390625 -1.953125 28.6640625 C-0.35065918 28.61693115 -0.35065918 28.61693115 1.28417969 28.56884766 C4.08346057 28.2546623 5.78088649 27.78122447 8.125 26.25 C9.23147808 24.03704384 9.32088368 22.70327301 9.375 20.25 C9.41367188 19.198125 9.41367188 19.198125 9.453125 18.125 C9.34484375 17.50625 9.2365625 16.8875 9.125 16.25 C8.135 15.59 7.145 14.93 6.125 14.25 C6.125 13.59 6.125 12.93 6.125 12.25 C5.42375 12.1675 4.7225 12.085 4 12 C0.47227053 11.07972275 -1.93611614 9.36873023 -4.875 7.25 C-3.84500937 0.33434864 -3.84500937 0.33434864 0 0 Z " fill="#FAFAFA" transform="translate(115.875,1.75)"/>
<path d="M0 0 C9.9 0 19.8 0 30 0 C30 19.14 30 38.28 30 58 C21.42 58 12.84 58 4 58 C0 54 0 54 -0.48101807 51.46893311 C-0.47213562 50.51851135 -0.46325317 49.5680896 -0.45410156 48.58886719 C-0.45379944 47.50804871 -0.45349731 46.42723022 -0.45318604 45.31365967 C-0.43254089 44.15312073 -0.41189575 42.99258179 -0.390625 41.796875 C-0.38496521 40.60394836 -0.37930542 39.41102173 -0.37347412 38.1819458 C-0.35107926 34.37088944 -0.30087429 30.56077233 -0.25 26.75 C-0.22993915 24.16668024 -0.21168766 21.58334575 -0.1953125 19 C-0.15460565 12.66601348 -0.07631396 6.33405835 0 0 Z " fill="#F8F8F8" transform="translate(19,61)"/>
<path d="M0 0 C0.33 0 0.66 0 1 0 C1.04626739 11.69998437 1.08184065 23.3999471 1.10362434 35.1000042 C1.11407752 40.5323598 1.12826461 45.96465298 1.15087891 51.39697266 C1.1725527 56.63594301 1.18455706 61.87485319 1.18975449 67.1138649 C1.19346009 69.11622185 1.20069583 71.11857538 1.21146011 73.12090683 C1.22590247 75.91775473 1.227981 78.7143515 1.22705078 81.51123047 C1.23424133 82.34560638 1.24143188 83.1799823 1.24884033 84.03964233 C1.22810432 89.77189568 1.22810432 89.77189568 -1 92 C-3.6015625 92.4140625 -3.6015625 92.4140625 -6.625 92.625 C-8.12933594 92.73714844 -8.12933594 92.73714844 -9.6640625 92.8515625 C-10.43492188 92.90054688 -11.20578125 92.94953125 -12 93 C-12 95.31 -12 97.62 -12 100 C-18.93 100 -25.86 100 -33 100 C-31.96875 96.926875 -30.9375 93.85375 -29.875 90.6875 C-21.73801181 66.33312825 -13.76183372 41.91676524 -6.04077148 17.42724609 C-1.47648438 2.95296875 -1.47648438 2.95296875 0 0 Z " fill="#FAFAFA" transform="translate(130,56)"/>
<path d="M0 0 C16.17 0 32.34 0 49 0 C49 7.26 49 14.52 49 22 C45.79619983 24.13586678 44.98060033 24.23132175 41.3125 24.125 C40.50425781 24.10695312 39.69601563 24.08890625 38.86328125 24.0703125 C38.24839844 24.04710937 37.63351563 24.02390625 37 24 C37 26.64 37 29.28 37 32 C24.79 32 12.58 32 0 32 C0 21.44 0 10.88 0 0 Z " fill="#FDFDFD" transform="translate(0,124)"/>
<path d="M0 0 C0.99 0 1.98 0 3 0 C3.04628627 12.46501753 3.08185032 24.93001471 3.10362434 37.39510059 C3.11407337 43.18278343 3.12825299 48.97040758 3.15087891 54.75805664 C3.17256737 60.34067552 3.1845602 65.92323786 3.18975449 71.50589561 C3.19345743 73.63860655 3.2006881 75.77131429 3.21146011 77.90400124 C3.22592186 80.88504412 3.22798017 83.86585166 3.22705078 86.84692383 C3.23424133 87.7338089 3.24143188 88.62069397 3.24884033 89.53445435 C3.246091 90.34633713 3.24334167 91.15821991 3.24050903 91.9947052 C3.24235262 92.69987683 3.24419621 93.40504847 3.24609566 94.13158894 C3 96 3 96 1 99 C-1.88211302 99.96070434 -3.69850044 100.10581883 -6.6875 100.0625 C-7.49574219 100.05347656 -8.30398437 100.04445313 -9.13671875 100.03515625 C-9.75160156 100.02355469 -10.36648437 100.01195312 -11 100 C-11 101.32 -11 102.64 -11 104 C23.65 104 58.3 104 94 104 C94 102.68 94 101.36 94 100 C92.0085944 99.61866701 90.00720923 99.28674418 88 99 C87.67 99.33 87.34 99.66 87 100 C80.28 99.28 80.28 99.28 79 98 C78.51019052 90.32151616 79.28108478 82.63847422 80 75 C74.06 75.33 68.12 75.66 62 76 C62 83.59 62 91.18 62 99 C57.56705495 96.78352748 57.12364492 96.01019213 55.1875 91.6875 C54.74792969 90.74261719 54.30835938 89.79773438 53.85546875 88.82421875 C52.899719 85.66893533 52.97579373 84.10397206 54 81 C56.0625 78.1875 56.0625 78.1875 58 76 C56.515 75.505 56.515 75.505 55 75 C54.938125 75.53625 54.87625 76.0725 54.8125 76.625 C53.61016865 80.13950702 51.49476933 82.25575374 49 85 C48.67 85 48.34 85 48 85 C48 82.03 48 79.06 48 76 C48.66 76 49.32 76 50 76 C50 75.34 50 74.68 50 74 C47.69 74 45.38 74 43 74 C43 74.66 43 75.32 43 76 C43.66 76 44.32 76 45 76 C45 82.6 45 89.2 45 96 C44.67 96 44.34 96 44 96 C43.505 87.09 43.505 87.09 43 78 C42.34 77.67 41.68 77.34 41 77 C41 75.68 41 74.36 41 73 C47.780933 72.92403812 54.5617566 72.8714375 61.34301758 72.83520508 C63.65067648 72.82010324 65.95830661 72.79962031 68.26586914 72.77368164 C71.57966199 72.73736025 74.89307592 72.72028764 78.20703125 72.70703125 C79.2414888 72.69154739 80.27594635 72.67606354 81.3417511 72.66011047 C82.3025206 72.65988388 83.2632901 72.65965729 84.25317383 72.65942383 C85.09922684 72.65276199 85.94527985 72.64610016 86.81697083 72.63923645 C89.49831288 73.08235031 90.37226598 73.86169949 92 76 C92.3984375 78.15625 92.3984375 78.15625 92.375 80.5 C92.38273438 81.2734375 92.39046875 82.046875 92.3984375 82.84375 C91.91655268 85.45159728 91.01270624 86.33871866 89 88 C89.39753821 89.46366342 89.81881384 90.9208935 90.25 92.375 C90.59804688 93.59316406 90.59804688 93.59316406 90.953125 94.8359375 C92.2214892 97.45785454 93.32423308 97.99382318 96 99 C96 101.31 96 103.62 96 106 C81.93582343 106.02333039 67.87164985 106.04091345 53.80745792 106.05181217 C47.27763767 106.0570417 40.74783037 106.06414061 34.21801758 106.07543945 C27.92218841 106.08626585 21.62637174 106.09227631 15.33053398 106.09487724 C12.92265056 106.09673194 10.51476786 106.1003534 8.10688972 106.10573006 C4.74710714 106.1129372 1.3873769 106.11399108 -1.97241211 106.11352539 C-2.97869659 106.11712067 -3.98498108 106.12071594 -5.02175903 106.12442017 C-5.93186234 106.1230455 -6.84196564 106.12167084 -7.77964783 106.12025452 C-8.57515517 106.12117631 -9.37066252 106.1220981 -10.19027615 106.12304783 C-12 106 -12 106 -13 105 C-13.125 102 -13.125 102 -13 99 C-10.86264735 96.86264735 -6.36198992 97.49004051 -3.46875 97.28125 C-1.0586395 97.26614735 -1.0586395 97.26614735 0 96 C0.09516211 93.2611158 0.12554594 90.54752059 0.11352539 87.80834961 C0.11367142 86.94988937 0.11381744 86.09142914 0.1139679 85.20695496 C0.11326847 82.35539262 0.1054747 79.50389475 0.09765625 76.65234375 C0.09579218 74.68079158 0.09436822 72.70923895 0.09336853 70.73768616 C0.08954251 65.53773733 0.07971152 60.33781625 0.06866455 55.13787842 C0.05845222 49.83606339 0.05387129 44.5342439 0.04882812 39.23242188 C0.03808933 28.82160237 0.02101191 18.41080349 0 8 C-0.25906631 8.84866135 -0.51813263 9.69732269 -0.78504944 10.57170105 C-2.64677684 16.65016307 -4.5306108 22.71329254 -6.55859375 28.73828125 C-7.02550589 30.13052249 -7.49238255 31.52277563 -7.95922852 32.91503906 C-8.19989044 33.6308313 -8.44055237 34.34662354 -8.68850708 35.08410645 C-14.14554784 51.31981994 -19.46820669 67.59724641 -24.72241211 83.8996582 C-25.24332623 85.51123066 -25.76424091 87.12280294 -26.28515625 88.734375 C-26.51594879 89.45378769 -26.74674133 90.17320038 -26.98452759 90.91441345 C-31.32299508 104.32299508 -31.32299508 104.32299508 -33 106 C-35.67058851 106.14115161 -38.32432238 106.04247107 -41 106 C-43.54737971 99.46303175 -45.65722585 92.83889198 -47.6875 86.125 C-48.00783203 85.08085937 -48.32816406 84.03671875 -48.65820312 82.9609375 C-48.96048828 81.96578125 -49.26277344 80.970625 -49.57421875 79.9453125 C-49.84838623 79.04312988 -50.12255371 78.14094727 -50.4050293 77.21142578 C-51 75 -51 75 -51 73 C-50.34 73 -49.68 73 -49 73 C-47.7146509 77.09230237 -46.43299892 81.18573834 -45.15478516 85.28027344 C-44.71928126 86.67349619 -44.28276237 88.06640208 -43.84521484 89.45898438 C-43.21706337 91.45881357 -42.59255136 93.45974777 -41.96875 95.4609375 C-41.59169922 96.66540527 -41.21464844 97.86987305 -40.82617188 99.11083984 C-40 102 -40 102 -40 104 C-37.03 103.505 -37.03 103.505 -34 103 C-33.47829224 101.38158203 -33.47829224 101.38158203 -32.94604492 99.73046875 C-31.64521453 95.69681215 -30.34189008 91.66396497 -29.0378418 87.63134766 C-28.475646 85.89165594 -27.91411115 84.15175048 -27.35327148 82.41162109 C-26.54327678 79.89883752 -25.73084471 77.38685277 -24.91796875 74.875 C-24.67096725 74.10696045 -24.42396576 73.3389209 -24.16947937 72.54760742 C-23.02455799 69.01698282 -21.83776241 65.51781438 -20.51635742 62.04907227 C-18.79673361 57.52832387 -17.30569309 52.94197842 -15.8203125 48.33984375 C-15.37835037 46.97854088 -15.37835037 46.97854088 -14.92745972 45.58973694 C-13.99159549 42.70620947 -13.0581673 39.82190125 -12.125 36.9375 C-10.89929947 33.15466809 -9.67256114 29.37217368 -8.4453125 25.58984375 C-8.15045959 24.68068207 -7.85560669 23.77152039 -7.55181885 22.83480835 C-5.07554417 15.20934355 -2.5532975 7.60001494 0 0 Z " fill="#2E2E2E" transform="translate(130,50)"/>
<path d="M0 0 C9.24 0 18.48 0 28 0 C31.48576886 10.20832309 34.76738963 20.40641636 37.66503906 30.79614258 C39.01635594 35.62183153 40.42797772 40.41916666 41.93359375 45.19921875 C42.25658447 46.22958252 42.5795752 47.25994629 42.91235352 48.3215332 C43.53872696 50.30835864 44.17292712 52.29273919 44.81616211 54.27416992 C47.07631643 61.46998498 48.3652972 67.31058403 44.75 74.3125 C44.33234375 75.15425781 43.9146875 75.99601562 43.484375 76.86328125 C41.83180785 79.24210818 40.58467508 79.82577933 38 81 C35.91374994 74.38534067 33.83307981 67.76894424 31.75610352 61.15136719 C31.05032693 58.90487887 30.34331924 56.65877693 29.63500977 54.41308594 C28.61142611 51.16704898 27.59242118 47.91960338 26.57421875 44.671875 C26.26159592 43.68386902 25.94897308 42.69586304 25.62687683 41.67791748 C23.49059932 34.84311991 21.6683126 27.96341677 20 21 C19.01 21 18.02 21 17 21 C17 21.66 17 22.32 17 23 C15.35 23 13.7 23 12 23 C11.98582031 21.95199219 11.97164062 20.90398438 11.95703125 19.82421875 C11.91012818 18.44526858 11.86188079 17.06636367 11.8125 15.6875 C11.80669922 14.99720703 11.80089844 14.30691406 11.79492188 13.59570312 C11.74609542 11.2983674 11.74609542 11.2983674 11 8 C7.56615456 5.16135443 4.37949755 4.5092439 0 4 C0 2.68 0 1.36 0 0 Z " fill="#F8F8F8" transform="translate(39,31)"/>
<path d="M0 0 C2.5033624 4.50605231 3.35028496 7.55530292 2.1105957 12.66821289 C1.64455738 14.10704728 1.16537111 15.54166432 0.67578125 16.97265625 C0.41822052 17.75635086 0.16065979 18.54004547 -0.10470581 19.3474884 C-0.95428654 21.92307889 -1.82065729 24.49267311 -2.6875 27.0625 C-3.28152626 28.85073947 -3.87453203 30.63931822 -4.46655273 32.42822266 C-5.69017383 36.11893848 -6.92084306 39.80719276 -8.15722656 43.49365234 C-9.92154079 48.7570624 -11.66228019 54.02802979 -13.3984375 59.30078125 C-14.45203044 62.49254984 -15.50717459 65.68380391 -16.5625 68.875 C-16.80930511 69.62290802 -17.05611023 70.37081604 -17.31039429 71.14138794 C-19.97197048 79.19293152 -22.70074784 87.18120819 -26 95 C-27.98 95 -29.96 95 -32 95 C-33.42976783 90.64186993 -34.85377068 86.28191474 -36.27246094 81.92016602 C-36.75590503 80.43657667 -37.24092125 78.95349866 -37.72753906 77.47094727 C-38.42666824 75.34003007 -39.12012543 73.20733874 -39.8125 71.07421875 C-40.14060669 70.0803138 -40.14060669 70.0803138 -40.4753418 69.06632996 C-41.38547586 66.24594445 -42 63.98600866 -42 61 C-38 59 -34 57 -30 55 C-29.32942113 56.7902061 -28.6636531 58.58221489 -28 60.375 C-27.443125 61.87160156 -27.443125 61.87160156 -26.875 63.3984375 C-26 66 -26 66 -26 68 C-25.01 68 -24.02 68 -23 68 C-22.81449585 66.96806519 -22.81449585 66.96806519 -22.62524414 65.9152832 C-21.9263157 62.65643724 -20.9897194 59.53714502 -19.99609375 56.35546875 C-19.79705948 55.7167131 -19.59802521 55.07795746 -19.39295959 54.41984558 C-18.74408353 52.34146271 -18.0910538 50.26441629 -17.4375 48.1875 C-17.21545898 47.47901917 -16.99341797 46.77053833 -16.76464844 46.04058838 C-12.90270215 33.72091028 -8.91386618 21.44560993 -4.74609375 9.22558594 C-4.10024362 7.29902515 -3.49905075 5.35760209 -2.90625 3.4140625 C-2 1 -2 1 0 0 Z " fill="#F5F5F5" transform="translate(122,59)"/>
<path d="M0 0 C0 0.66 0 1.32 0 2 C-3.38018531 3.04005702 -6.4780279 3.08004482 -10 3 C-10.33 4.98 -10.66 6.96 -11 9 C-7.7 10.65 -4.4 12.3 -1 14 C-1 14.66 -1 15.32 -1 16 C0.32 16.66 1.64 17.32 3 18 C3.3539823 25.07964602 3.3539823 25.07964602 2.0625 28.4375 C-3.37313835 32.55540784 -13.03104757 31.12479558 -19.5625 31.0625 C-20.47580078 31.05798828 -21.38910156 31.05347656 -22.33007812 31.04882812 C-24.55345738 31.0371874 -26.77669121 31.02083851 -29 31 C-29.00257812 30.17757813 -29.00515625 29.35515625 -29.0078125 28.5078125 C-29.28771757 20.4278862 -30.33151328 14.05001948 -36 8 C-39.50929935 5.5945874 -43.1062917 3.70436342 -47 2 C-47 1.67 -47 1.34 -47 1 C-31.32185453 0.16831508 -15.69927268 -0.13553629 0 0 Z " fill="#464646" transform="translate(123,0)"/>
<path d="M0 0 C2.64 0.33 5.28 0.66 8 1 C8.07001958 15.43802521 8.12275417 29.87602417 8.15543652 44.31418419 C8.17091852 51.01778202 8.19203328 57.72127448 8.22631836 64.42480469 C8.25881885 70.88922881 8.27683337 77.35354326 8.28463173 83.81804276 C8.290192 86.28931023 8.30104919 88.76057143 8.31719017 91.23179245 C8.33884044 94.68249422 8.3419721 98.13273778 8.34057617 101.58349609 C8.351362 102.61423752 8.36214783 103.64497894 8.3732605 104.70695496 C8.36707451 106.1120356 8.36707451 106.1120356 8.36076355 107.54550171 C8.36352893 108.36221029 8.36629431 109.17891888 8.36914349 110.02037621 C8.24732614 110.67365206 8.12550879 111.32692791 8 112 C5 114 5 114 0 114 C0 76.38 0 38.76 0 0 Z " fill="#F0F0F0" transform="translate(0,5)"/>
<path d="M0 0 C3.6391272 11.26916389 7.04749014 22.53063477 10 34 C3.73 34 -2.54 34 -9 34 C-9 31.36 -9 28.72 -9 26 C-9.92232422 26.05220703 -9.92232422 26.05220703 -10.86328125 26.10546875 C-11.67152344 26.13253906 -12.47976562 26.15960938 -13.3125 26.1875 C-14.51326172 26.23970703 -14.51326172 26.23970703 -15.73828125 26.29296875 C-18 26 -18 26 -19.62304688 24.80078125 C-21.46614043 22.39038089 -21.3451892 20.90591028 -21.29296875 17.89453125 C-21.28330078 16.91162109 -21.27363281 15.92871094 -21.26367188 14.91601562 C-21.23853516 13.89185547 -21.21339844 12.86769531 -21.1875 11.8125 C-21.17396484 10.77673828 -21.16042969 9.74097656 -21.14648438 8.67382812 C-21.11111389 6.11536301 -21.06175544 3.5579422 -21 1 C-18.25008168 0.83188272 -15.50007888 0.6654519 -12.75 0.5 C-11.97269531 0.45230469 -11.19539063 0.40460938 -10.39453125 0.35546875 C-9.26337891 0.28779297 -9.26337891 0.28779297 -8.109375 0.21875 C-7.41811523 0.17685547 -6.72685547 0.13496094 -6.01464844 0.09179688 C-4.01161035 0.00052902 -2.0051163 0 0 0 Z " fill="#F5F5F5" transform="translate(79,122)"/>
<path d="M0 0 C0.66 0 1.32 0 2 0 C5.96560265 11.5809635 9.55281886 23.25530819 13 35 C13.21076172 35.71768555 13.42152344 36.43537109 13.63867188 37.17480469 C17.02051473 48.73405446 17.02051473 48.73405446 18 54 C16.50817784 54.68477083 15.00592508 55.34682767 13.5 56 C12.6646875 56.37125 11.829375 56.7425 10.96875 57.125 C8 58 8 58 0 58 C0 38.86 0 19.72 0 0 Z " fill="#EEEEEE" transform="translate(58,61)"/>
<path d="M0 0 C1.65 0 3.3 0 5 0 C5.00364563 1.04347595 5.00729126 2.0869519 5.01104736 3.16204834 C5.0479737 12.99137365 5.10572038 22.82038498 5.18390274 32.64947128 C5.22342771 37.70285093 5.25559152 42.75605501 5.27099609 47.80957031 C5.28612966 52.68568004 5.32051629 57.56130726 5.36830902 62.43720245 C5.38315695 64.29829975 5.39104296 66.15946592 5.39188385 68.02062225 C5.39424504 70.62592635 5.42125496 73.22988777 5.45410156 75.83496094 C5.4490712 76.60604187 5.44404083 77.3771228 5.43885803 78.17156982 C5.50773307 81.69773234 5.72142435 83.63758771 7.90032959 86.472229 C10.18070435 88.13148486 11.46452776 88.56430185 14.25 88.75 C15.4875 88.8325 16.725 88.915 18 89 C18 90.32 18 91.64 18 93 C8.1 93 -1.8 93 -12 93 C-12 91.68 -12 90.36 -12 89 C-11.28972656 88.87882812 -10.57945313 88.75765625 -9.84765625 88.6328125 C-8.92855469 88.46523437 -8.00945313 88.29765625 -7.0625 88.125 C-6.14597656 87.96257812 -5.22945312 87.80015625 -4.28515625 87.6328125 C-3.53105469 87.42398438 -2.77695312 87.21515625 -2 87 C-0.42070193 83.84140385 -0.8200366 80.44051926 -0.79467773 76.97021484 C-0.77982834 75.72619652 -0.77982834 75.72619652 -0.76467896 74.45704651 C-0.73302336 71.70837281 -0.70829051 68.95968182 -0.68359375 66.2109375 C-0.66302773 64.30807031 -0.64203135 62.40520773 -0.62062073 60.50234985 C-0.56536373 55.48823775 -0.51597047 50.47408418 -0.46777344 45.4598999 C-0.41758488 40.34562478 -0.36188502 35.23141006 -0.30664062 30.1171875 C-0.19901469 20.07817657 -0.09757958 10.03911325 0 0 Z " fill="#FBFBFB" transform="translate(51,61)"/>
<path d="M0 0 C1.32 0 2.64 0 4 0 C7.08938869 5.13796728 7.49200506 9.30172134 7.625 15.125 C7.67624564 16.71105245 7.73081903 18.29700161 7.7890625 19.8828125 C7.80662598 20.57777832 7.82418945 21.27274414 7.84228516 21.98876953 C8.01131027 24.14423216 8.24152803 25.96953594 9 28 C9.99 28.33 10.98 28.66 12 29 C6.06 29.33 0.12 29.66 -6 30 C-12.77906897 49.91098629 -12.77906897 49.91098629 -19 70 C-22.56293977 82.20407758 -26.68864755 94.22574637 -30.74658203 106.27197266 C-32.84400899 112.51032669 -34.92172346 118.75524495 -37 125 C-37.99 125 -38.98 125 -40 125 C-40.70304222 123.27709395 -41.38683491 121.54632534 -42.0625 119.8125 C-42.44535156 118.84957031 -42.82820313 117.88664062 -43.22265625 116.89453125 C-44.05622133 113.79065325 -43.88679818 112.05080883 -43 109 C-42.67 109 -42.34 109 -42 109 C-41.51171875 110.98567708 -41.0234375 112.97135417 -40.53515625 114.95703125 C-40.08989295 116.65683202 -39.55566015 118.33301954 -39 120 C-36.35129113 113.57022692 -33.95555738 107.11572369 -31.828125 100.49609375 C-31.54450607 99.62285461 -31.26088715 98.74961548 -30.96867371 97.84991455 C-30.05919553 95.04681847 -29.15455541 92.24218805 -28.25 89.4375 C-27.62145374 87.49771243 -26.99262729 85.55801564 -26.36352539 83.6184082 C-23.35703559 74.34054232 -20.37151619 65.05619873 -17.41601562 55.76196289 C-16.21183107 51.97845589 -14.99846168 48.1979808 -13.77880859 44.41943359 C-13.26715771 42.82994762 -12.75954231 41.23915589 -12.25634766 39.64697266 C-11.60366122 37.59225252 -10.93094487 35.54549352 -10.25 33.5 C-9.90453125 32.4378125 -9.5590625 31.375625 -9.203125 30.28125 C-8 28 -8 28 -6.046875 27.15625 C-4.3686598 27.02814197 -2.68309772 27 -1 27 C-0.67 18.09 -0.34 9.18 0 0 Z " fill="#3A3A3A" transform="translate(136,2)"/>
<path d="M0 0 C4.62642926 -0.07426356 9.25251009 -0.12865492 13.87939453 -0.16479492 C15.45269822 -0.17986364 17.02596002 -0.20032245 18.59912109 -0.22631836 C20.86306096 -0.26278738 23.12644457 -0.27974508 25.390625 -0.29296875 C26.09181458 -0.30845261 26.79300415 -0.32393646 27.51544189 -0.33988953 C30.63734074 -0.34096072 32.71055141 -0.16421306 35.45117188 1.390625 C37 3 37 3 37.390625 5.04296875 C37.26041667 7.02864583 37.13020833 9.01432292 37 11 C35.02 11.99 35.02 11.99 33 13 C34.32 16.63 35.64 20.26 37 24 C34 26 34 26 30.375 25.6875 C27 25 27 25 26 24 C25.51019052 16.32151616 26.28108478 8.63847422 27 1 C21.06 1.33 15.12 1.66 9 2 C9 9.59 9 17.18 9 25 C4.56705495 22.78352748 4.12364492 22.01019213 2.1875 17.6875 C1.74792969 16.74261719 1.30835938 15.79773438 0.85546875 14.82421875 C-0.100281 11.66893533 -0.02420627 10.10397206 1 7 C3.0625 4.1875 3.0625 4.1875 5 2 C4.01 1.67 3.02 1.34 2 1 C1.67 1.99 1.34 2.98 1 4 C0.67 2.68 0.34 1.36 0 0 Z " fill="#4F4F4F" transform="translate(183,124)"/>
<path d="M0 0 C3.125 0.25 3.125 0.25 4.9375 1.625 C6.125 3.25 6.125 3.25 7.125 5.25 C8.115 5.58 9.105 5.91 10.125 6.25 C10.455 4.6 10.785 2.95 11.125 1.25 C12.775 0.92 14.425 0.59 16.125 0.25 C16.125 9.16 16.125 18.07 16.125 27.25 C13.485 27.25 10.845 27.25 8.125 27.25 C8.455 26.26 8.785 25.27 9.125 24.25 C9.40955916 21.4864928 9.30317991 19.05633361 9.125 16.25 C8.135 15.59 7.145 14.93 6.125 14.25 C6.125 13.59 6.125 12.93 6.125 12.25 C5.42375 12.1675 4.7225 12.085 4 12 C0.47227053 11.07972275 -1.93611614 9.36873023 -4.875 7.25 C-3.84500937 0.33434864 -3.84500937 0.33434864 0 0 Z " fill="#EEEEEE" transform="translate(115.875,1.75)"/>
<path d="M0 0 C6.780933 -0.07596188 13.5617566 -0.1285625 20.34301758 -0.16479492 C22.65067648 -0.17989676 24.95830661 -0.20037969 27.26586914 -0.22631836 C30.57966199 -0.26263975 33.89307592 -0.27971236 37.20703125 -0.29296875 C38.2414888 -0.30845261 39.27594635 -0.32393646 40.3417511 -0.33988953 C41.3025206 -0.34011612 42.2632901 -0.34034271 43.25317383 -0.34057617 C44.09922684 -0.34723801 44.94527985 -0.35389984 45.81697083 -0.36076355 C48.49831288 0.08235031 49.37226598 0.86169949 51 3 C51.3984375 5.15625 51.3984375 5.15625 51.375 7.5 C51.38660156 8.66015625 51.38660156 8.66015625 51.3984375 9.84375 C50.91655268 12.45159728 50.01270624 13.33871866 48 15 C48.39753821 16.46366342 48.81881384 17.9208935 49.25 19.375 C49.48203125 20.18710938 49.7140625 20.99921875 49.953125 21.8359375 C51.2214892 24.45785454 52.32423308 24.99382318 55 26 C55 28.31 55 30.62 55 33 C19.69 33 -15.62 33 -52 33 C-52 32.67 -52 32.34 -52 32 C-17.35 32 17.3 32 53 32 C53 30.35 53 28.7 53 27 C52.236875 26.835 51.47375 26.67 50.6875 26.5 C47.17580315 24.53998315 46.72893402 22.66287127 45.48046875 18.97265625 C45 17 45 17 45 14 C45.99 13.34 46.98 12.68 48 12 C48.47558206 10.098006 48.47558206 10.098006 48.375 8 C48.38273437 7.29875 48.39046875 6.5975 48.3984375 5.875 C48.140914 3.58941406 48.140914 3.58941406 45 2 C42.46413152 1.76006345 40.02783969 1.62746781 37.48828125 1.5859375 C36.76005661 1.56657135 36.03183197 1.5472052 35.28153992 1.5272522 C32.95864525 1.46753624 30.63570081 1.42110383 28.3125 1.375 C26.73630668 1.33681279 25.16013405 1.29776062 23.58398438 1.2578125 C19.72282465 1.16184152 15.86156724 1.07778151 12 1 C12.18481934 1.78785889 12.36963867 2.57571777 12.56005859 3.38745117 C13 6 13 6 12.0390625 7.80078125 C10.71233302 9.21913569 9.35705585 10.61063329 8 12 C7.67 12 7.34 12 7 12 C7 9.03 7 6.06 7 3 C7.66 3 8.32 3 9 3 C9 2.34 9 1.68 9 1 C6.69 1 4.38 1 2 1 C2 1.66 2 2.32 2 3 C2.66 3 3.32 3 4 3 C4 9.6 4 16.2 4 23 C3.67 23 3.34 23 3 23 C2.505 14.09 2.505 14.09 2 5 C1.34 4.67 0.68 4.34 0 4 C0 2.68 0 1.36 0 0 Z " fill="#090909" transform="translate(171,123)"/>
<path d="M0 0 C1.65 0 3.3 0 5 0 C5 0.66 5 1.32 5 2 C5.99 2 6.98 2 8 2 C8.08720919 5.58317958 8.14046112 9.16608567 8.1875 12.75 C8.21263672 13.76578125 8.23777344 14.7815625 8.26367188 15.828125 C8.27817383 17.29765625 8.27817383 17.29765625 8.29296875 18.796875 C8.31653442 20.14797363 8.31653442 20.14797363 8.34057617 21.52636719 C7.92941977 24.51263006 7.10177688 25.86172648 5 28 C1.9375 28.4375 1.9375 28.4375 -1 28 C-3.23413013 24.64880481 -3.23847762 23.5822245 -3.1953125 19.67578125 C-3.18886719 18.64775391 -3.18242187 17.61972656 -3.17578125 16.56054688 C-3.15064453 14.95276367 -3.15064453 14.95276367 -3.125 13.3125 C-3.11597656 12.22904297 -3.10695312 11.14558594 -3.09765625 10.02929688 C-3.0740734 7.3526429 -3.04116126 4.67643203 -3 2 C-2.01 2 -1.02 2 0 2 C0 1.34 0 0.68 0 0 Z " fill="#EDEDED" transform="translate(150,0)"/>
<path d="M0 0 C1.65 0 3.3 0 5 0 C4.9071875 0.66386719 4.814375 1.32773438 4.71875 2.01171875 C4.48697549 4.84681768 4.43772817 7.20580947 5 10 C7.31956512 12.3647148 10.03146591 13.58980913 13 15 C16 16.9375 16 16.9375 18 19 C18.4375 22.125 18.4375 22.125 18 25 C16 27 16 27 13.125 27.4375 C10 27 10 27 7.625 24.6875 C6 22 6 22 6 19 C5.01 19 4.02 19 3 19 C3.33 21.64 3.66 24.28 4 27 C2.68 27 1.36 27 0 27 C0 18.09 0 9.18 0 0 Z " fill="#F4F4F4" transform="translate(104,2)"/>
<path d="M0 0 C0.33 0 0.66 0 1 0 C1 4.95 1 9.9 1 15 C2.65 15 4.3 15 6 15 C6 14.34 6 13.68 6 13 C6.99 13 7.98 13 9 13 C13.03259894 24.9186908 16.88781964 36.88202765 20.57958984 48.91064453 C21.39184984 51.55485248 22.20946909 54.19736772 23.02734375 56.83984375 C23.54719238 58.52854817 24.06673594 60.21734653 24.5859375 61.90625 C24.82960052 62.69253784 25.07326355 63.47882568 25.3243103 64.28894043 C27 69.77051543 27 69.77051543 27 72 C25.515 71.505 25.515 71.505 24 71 C23.12792969 69.04833984 23.12792969 69.04833984 22.421875 66.4609375 C22.15125244 65.49816895 21.88062988 64.53540039 21.60180664 63.54345703 C21.18016235 61.9750708 21.18016235 61.9750708 20.75 60.375 C20.14082869 58.19228753 19.5301087 56.01000678 18.91796875 53.828125 C18.60520996 52.70341797 18.29245117 51.57871094 17.97021484 50.41992188 C16.13722634 43.95879883 14.1277931 37.55107669 12.13378906 31.13818359 C11.71371582 29.7742749 11.71371582 29.7742749 11.28515625 28.3828125 C11.03644775 27.58246582 10.78773926 26.78211914 10.53149414 25.95751953 C10 24 10 24 10 22 C9.34 22 8.68 22 8 22 C7.67 49.72 7.34 77.44 7 106 C6.67 106 6.34 106 6 106 C5.84609798 95.00380841 5.69791723 84.00755603 5.5570364 73.01118946 C5.49143989 67.90512178 5.42387426 62.799096 5.35180664 57.69311523 C5.28232782 52.76541519 5.21802393 47.83767229 5.15730476 42.9098568 C5.13323248 41.02998084 5.10729683 39.15012779 5.07946587 37.27030373 C5.0407985 34.637026 5.00876178 32.00374467 4.97827148 29.37036133 C4.96532547 28.59352493 4.95237946 27.81668854 4.93904114 27.01631165 C4.90190838 23.20741555 5.06644778 19.70104221 6 16 C4.02 16 2.04 16 0 16 C0 10.72 0 5.44 0 0 Z " fill="#646464" transform="translate(50,39)"/>
<path d="M0 0 C6.93 0 13.86 0 21 0 C21 8.91 21 17.82 21 27 C19.35 27 17.7 27 16 27 C15.99742188 26.32195313 15.99484375 25.64390625 15.9921875 24.9453125 C15.67962224 17.4229085 14.01965582 11.74265151 9 6 C6.14316086 3.93414238 3.24400678 2.36969175 0 1 C0 0.67 0 0.34 0 0 Z " fill="#F7F7F7" transform="translate(78,2)"/>
<path d="M0 0 C0.33 0 0.66 0 1 0 C1.04629221 11.42194559 1.08185334 22.84386895 1.10362434 34.26588917 C1.11407207 39.56930156 1.12824932 44.87264988 1.15087891 50.17602539 C1.172572 55.29180724 1.18456117 60.40752738 1.18975449 65.52335167 C1.1934566 67.47743387 1.20068568 69.43151261 1.21146011 71.38556862 C1.22592806 74.11755359 1.22797991 76.84928186 1.22705078 79.58129883 C1.23783661 80.79941757 1.23783661 80.79941757 1.24884033 82.04214478 C1.23461315 85.89513058 1.18879643 87.71680535 -1 91 C-3.88211302 91.96070434 -5.69850044 92.10581883 -8.6875 92.0625 C-9.49574219 92.05347656 -10.30398437 92.04445313 -11.13671875 92.03515625 C-11.75160156 92.02355469 -12.36648437 92.01195312 -13 92 C-13 93.32 -13 94.64 -13 96 C21.65 96 56.3 96 92 96 C92 96.33 92 96.66 92 97 C78.19664891 97.15377087 64.39324619 97.30174054 50.58976078 97.4429636 C44.18098339 97.50870261 37.77223725 97.57632833 31.36352539 97.64819336 C25.18444696 97.71741515 19.00533564 97.78177576 12.82616997 97.84269524 C10.46292707 97.86686216 8.09970175 97.89281234 5.73649788 97.92053413 C2.43902463 97.9589176 -0.85845288 97.9910896 -4.15600586 98.02172852 C-5.63738037 98.04114754 -5.63738037 98.04114754 -7.14868164 98.06095886 C-8.04195663 98.06799835 -8.93523163 98.07503784 -9.85557556 98.08229065 C-10.63633422 98.09058679 -11.41709288 98.09888292 -12.22151089 98.10743046 C-14 98 -14 98 -15 97 C-15.125 94 -15.125 94 -15 91 C-12.88547762 88.88547762 -8.43004574 89.55438351 -5.56640625 89.37890625 C-2.8393833 89.23688035 -2.8393833 89.23688035 -1 87 C-0.78236556 84.23075979 -0.68857851 81.55855356 -0.68115234 78.78662109 C-0.67110672 77.9377684 -0.6610611 77.08891571 -0.65071106 76.21434021 C-0.61975093 73.40071305 -0.60280845 70.58718157 -0.5859375 67.7734375 C-0.56723616 65.825726 -0.54766353 63.87802269 -0.5272522 61.93032837 C-0.47581573 56.79785987 -0.43625177 51.66536507 -0.39910889 46.53277588 C-0.35914125 41.29782545 -0.30801598 36.06298551 -0.2578125 30.828125 C-0.16091695 20.55216082 -0.07655595 10.27613442 0 0 Z " fill="#575757" transform="translate(132,58)"/>
<path d="M0 0 C2.31 0 4.62 0 7 0 C7 0.66 7 1.32 7 2 C6.34 2 5.68 2 5 2 C5.33 4.64 5.66 7.28 6 10 C6.804375 9.071875 7.60875 8.14375 8.4375 7.1875 C8.88996094 6.66542969 9.34242188 6.14335937 9.80859375 5.60546875 C11.20871231 3.89287029 11.20871231 3.89287029 12 1 C13.32 1.33 14.64 1.66 16 2 C15.62746094 2.43570313 15.25492188 2.87140625 14.87109375 3.3203125 C11.72432878 7.22208568 11.72432878 7.22208568 11 12.0625 C11.95058237 15.09687701 11.95058237 15.09687701 13.625 18.125 C15 21 15 21 14.6875 23.375 C14.3471875 24.179375 14.3471875 24.179375 14 25 C9.00632136 25.7282448 4.00890086 26.38487182 -1 27 C-1 26.34 -1 25.68 -1 25 C-0.01 25 0.98 25 2 25 C2 17.41 2 9.82 2 2 C1.34 2 0.68 2 0 2 C0 1.34 0 0.68 0 0 Z " fill="#F7F7F7" transform="translate(173,124)"/>
<path d="M0 0 C3.41031729 -0.31002884 5.33006024 -0.47715134 8.171875 1.546875 C10.69530894 4.93302139 10.53294656 7.31578692 10.5 11.5 C10.5103125 12.8096875 10.520625 14.119375 10.53125 15.46875 C10 19 10 19 8.203125 21.453125 C5.10961053 23.62516707 2.68324954 23.28332689 -1 23 C-1.12152487 15.26291674 -0.84800767 7.692641 0 0 Z " fill="#2D2D2D" transform="translate(196,126)"/>
<path d="M0 0 C1.32 0 2.64 0 4 0 C7.4717817 5.52878909 7.53740679 10.54535508 7.6875 16.875 C7.73874023 18.33679687 7.73874023 18.33679687 7.79101562 19.828125 C7.87304293 22.21863491 7.94233848 24.60879905 8 27 C5.36 27 2.72 27 0 27 C0 18.09 0 9.18 0 0 Z " fill="#F3F3F3" transform="translate(136,2)"/>
<path d="M0 0 C0.66 0.33 1.32 0.66 2 1 C2 5.95 2 10.9 2 16 C2.66 16 3.32 16 4 16 C4.66 14.02 5.32 12.04 6 10 C6.66 10.66 7.32 11.32 8 12 C7.61079533 16.13955593 6.48188996 19.91061059 5.15234375 23.8359375 C4.79462891 24.89941406 4.43691406 25.96289062 4.06835938 27.05859375 C3.69517578 28.15300781 3.32199219 29.24742188 2.9375 30.375 C2.56044922 31.49261719 2.18339844 32.61023438 1.79492188 33.76171875 C0.86734746 36.50921766 -0.06441037 39.25522228 -1 42 C-4.11565955 38.88434045 -4.88279829 36.0352818 -5.375 31.6875 C-4.97103628 27.71519012 -3.91542799 25.31353098 -1.97265625 21.89453125 C0.35515153 17.36044783 0.11979357 12.73894791 0.0625 7.75 C0.05798828 7.00492187 0.05347656 6.25984375 0.04882812 5.4921875 C0.03709246 3.6614236 0.0191585 1.83070127 0 0 Z " fill="#EEEEEE" transform="translate(99,82)"/>
<path d="M0 0 C0.66 0.99 1.32 1.98 2 3 C1.28422193 6.0272676 0.45972464 8.82900032 -0.54296875 11.76171875 C-0.82723221 12.62634232 -1.11149567 13.49096588 -1.40437317 14.38179016 C-2.31958481 17.15468518 -3.25344591 19.92090244 -4.1875 22.6875 C-4.79871897 24.53280842 -5.40875912 26.37850775 -6.01757812 28.22460938 C-13.34655273 50.34655273 -13.34655273 50.34655273 -15 52 C-17.67058851 52.14115161 -20.32432238 52.04247107 -23 52 C-25.54737971 45.46303175 -27.65722585 38.83889198 -29.6875 32.125 C-30.00783203 31.08085937 -30.32816406 30.03671875 -30.65820312 28.9609375 C-31.11163086 27.46820313 -31.11163086 27.46820313 -31.57421875 25.9453125 C-31.84838623 25.04312988 -32.12255371 24.14094727 -32.4050293 23.21142578 C-33 21 -33 21 -33 19 C-32.34 19 -31.68 19 -31 19 C-29.7146509 23.09230237 -28.43299892 27.18573834 -27.15478516 31.28027344 C-26.71928126 32.67349619 -26.28276237 34.06640208 -25.84521484 35.45898438 C-25.21706337 37.45881357 -24.59255136 39.45974777 -23.96875 41.4609375 C-23.59169922 42.66540527 -23.21464844 43.86987305 -22.82617188 45.11083984 C-22 48 -22 48 -22 50 C-19.03 49.505 -19.03 49.505 -16 49 C-15.65219482 47.92105469 -15.30438965 46.84210938 -14.94604492 45.73046875 C-13.64521453 41.69681215 -12.34189008 37.66396497 -11.0378418 33.63134766 C-10.475646 31.89165594 -9.91411115 30.15175048 -9.35327148 28.41162109 C-8.54327678 25.89883752 -7.73084471 23.38685277 -6.91796875 20.875 C-6.67096725 20.10696045 -6.42396576 19.3389209 -6.16947937 18.54760742 C-4.98530963 14.8959516 -3.74780576 11.28266675 -2.38012695 7.6953125 C-1.40484198 5.08397101 -0.62912073 2.68994066 0 0 Z " fill="#3B3B3B" transform="translate(112,104)"/>
<path d="M0 0 C0.66 0 1.32 0 2 0 C2.144375 0.7425 2.28875 1.485 2.4375 2.25 C4.81731618 6.43847648 8.6138594 7.38452846 13 9 C13 9.66 13 10.32 13 11 C14.32 11.66 15.64 12.32 17 13 C17.3539823 20.07964602 17.3539823 20.07964602 16.0625 23.4375 C12.7317519 25.96079402 9.0915151 25.9713379 5 26 C1.9375 25.5625 1.9375 25.5625 0 25 C0 23.68 0 22.36 0 21 C3.875 21.875 3.875 21.875 5 23 C8 23.16666667 8 23.16666667 11 23 C12.28356708 21.9001201 12.28356708 21.9001201 12.5625 19.25 C12.35893132 16.00911246 12.35893132 16.00911246 10.390625 14.6328125 C8.28907245 13.36082016 6.16252854 12.16505228 4 11 C0.9375 9.125 0.9375 9.125 -1 7 C-0.8125 3.25 -0.8125 3.25 0 0 Z " fill="#1C1C1C" transform="translate(109,5)"/>
<path d="M0 0 C2.375 -0.125 2.375 -0.125 5 0 C7 2 7 2 7.1953125 3.9453125 C7.13020833 5.96354167 7.06510417 7.98177083 7 10 C5.02 10.99 5.02 10.99 3 12 C4.32 15.63 5.64 19.26 7 23 C4 25 4 25 0.375 24.6875 C-3 24 -3 24 -4 23 C-4.07226502 21.14712498 -4.0838122 19.29166122 -4.0625 17.4375 C-4.05347656 16.42558594 -4.04445312 15.41367188 -4.03515625 14.37109375 C-4.02355469 13.58863281 -4.01195312 12.80617187 -4 12 C-2.02 11.34 -0.04 10.68 2 10 C2.76522801 6.64541845 2.76522801 6.64541845 3 3 C1.70735301 1.03568595 1.70735301 1.03568595 0 0 Z " fill="#C9C9C9" transform="translate(213,125)"/>
<path d="M0 0 C1.32 0 2.64 0 4 0 C4.66 2.31 5.32 4.62 6 7 C5.34 7 4.68 7 4 7 C4.165 7.515625 4.33 8.03125 4.5 8.5625 C5.15049 11.73363876 5.0620734 14.77218334 5 18 C-1.75 19.125 -1.75 19.125 -4 18 C-2.28571429 2.28571429 -2.28571429 2.28571429 0 0 Z " fill="#303030" transform="translate(163,131)"/>
<path d="M0 0 C1.25159912 0.00523682 2.50319824 0.01047363 3.79272461 0.01586914 C4.78942421 0.01799156 4.78942421 0.01799156 5.80625916 0.02015686 C7.93590735 0.02577021 10.06545175 0.03832485 12.19506836 0.05102539 C13.63582205 0.05603868 15.07657739 0.06060188 16.51733398 0.06469727 C20.05577938 0.07574394 23.59416375 0.09301747 27.13256836 0.11352539 C27.97336855 2.52782308 28.80538238 4.94456532 29.63256836 7.36352539 C29.87104492 8.04543945 30.10952148 8.72735352 30.35522461 9.42993164 C31.52678123 12.87765542 32.13256836 15.43055443 32.13256836 19.11352539 C32.79256836 19.44352539 33.45256836 19.77352539 34.13256836 20.11352539 C33.14256836 20.11352539 32.15256836 20.11352539 31.13256836 20.11352539 C30.29577559 17.48958233 29.46299894 14.86448155 28.63256836 12.23852539 C28.3940918 11.4921582 28.15561523 10.74579102 27.90991211 9.97680664 C26.13256836 4.34008789 26.13256836 4.34008789 26.13256836 2.11352539 C16.89256836 2.11352539 7.65256836 2.11352539 -1.86743164 2.11352539 C-1.86743164 3.43352539 -1.86743164 4.75352539 -1.86743164 6.11352539 C-1.24094727 6.1509082 -0.61446289 6.18829102 0.03100586 6.22680664 C0.84827148 6.29254883 1.66553711 6.35829102 2.50756836 6.42602539 C3.72573242 6.51303711 3.72573242 6.51303711 4.96850586 6.60180664 C7.13256836 7.11352539 7.13256836 7.11352539 9.13256836 10.11352539 C4.84256836 9.45352539 0.55256836 8.79352539 -3.86743164 8.11352539 C-3.90984887 5.78057764 -3.90836101 3.44649972 -3.86743164 1.11352539 C-2.86743164 0.11352539 -2.86743164 0.11352539 0 0 Z " fill="#363636" transform="translate(40.867431640625,28.886474609375)"/>
<path d="M0 0 C2.64 0 5.28 0 8 0 C8 0.66 8 1.32 8 2 C7.01 2 6.02 2 5 2 C5.00523682 2.71655762 5.01047363 3.43311523 5.01586914 4.17138672 C5.03660667 7.40591562 5.04964984 10.64043056 5.0625 13.875 C5.07087891 15.00292969 5.07925781 16.13085938 5.08789062 17.29296875 C5.09111328 18.36933594 5.09433594 19.44570313 5.09765625 20.5546875 C5.10289307 21.54968262 5.10812988 22.54467773 5.11352539 23.56982422 C5 26 5 26 4 28 C6.475 28.99 6.475 28.99 9 30 C9 31.98 9 33.96 9 36 C5.7169902 37.6415049 2.57454967 36.51888624 -1 36 C-1 35.67 -1 35.34 -1 35 C1.64 35 4.28 35 7 35 C7 33.68 7 32.36 7 31 C3.37 31 -0.26 31 -4 31 C-4 30.67 -4 30.34 -4 30 C-2.02 30 -0.04 30 2 30 C0.87465895 28.64381501 0.87465895 28.64381501 -2.0625 28.9375 C-3.031875 28.958125 -4.00125 28.97875 -5 29 C-5 28.67 -5 28.34 -5 28 C-4.030625 27.71125 -3.06125 27.4225 -2.0625 27.125 C1.10664203 26.35785318 1.10664203 26.35785318 2 24 C2.15222973 22.33434251 2.24917215 20.66343504 2.31640625 18.9921875 C2.35830078 18.00605469 2.40019531 17.01992188 2.44335938 16.00390625 C2.48267578 14.97136719 2.52199219 13.93882813 2.5625 12.875 C2.62727539 11.31458984 2.62727539 11.31458984 2.69335938 9.72265625 C2.7996288 7.14857472 2.90166583 4.57439492 3 2 C2.01 2 1.02 2 0 2 C0 1.34 0 0.68 0 0 Z " fill="#2E2E2E" transform="translate(155,0)"/>
<path d="M0 0 C1.65 0 3.3 0 5 0 C5.10823773 2.24893954 5.18569645 4.49937575 5.25 6.75 C5.29640625 8.00296875 5.3428125 9.2559375 5.390625 10.546875 C5 14 5 14 3.1875 16.4375 C0.33530729 18.47478051 -1.57363451 18.31148777 -5 18 C-5 14.37 -5 10.74 -5 7 C-3.35 7 -1.7 7 0 7 C0.33 7.99 0.66 8.98 1 10 C1.66 10 2.32 10 3 10 C3 7.03 3 4.06 3 1 C2.01 0.67 1.02 0.34 0 0 Z " fill="#1C1C1C" transform="translate(201,131)"/>
<path d="M0 0 C6.27 0 12.54 0 19 0 C19 3.63 19 7.26 19 11 C18.67 11 18.34 11 18 11 C17.67 9.02 17.34 7.04 17 5 C16.67 9.62 16.34 14.24 16 19 C15.67 19 15.34 19 15 19 C14.67 13.72 14.34 8.44 14 3 C9.545 2.01 9.545 2.01 5 1 C5 4.3 5 7.6 5 11 C4.67 11 4.34 11 4 11 C4 8.69 4 6.38 4 4 C3.34 4 2.68 4 2 4 C2.165 4.86625 2.33 5.7325 2.5 6.625 C3.39266231 12.69761822 3.07639812 18.87966132 3 25 C1.68 24.67 0.36 24.34 -1 24 C-0.34 24 0.32 24 1 24 C0.67 16.08 0.34 8.16 0 0 Z " fill="#DFDFDF" transform="translate(191,125)"/>
<path d="M0 0 C10.89 0 21.78 0 33 0 C33 0.99 33 1.98 33 3 C33.495 3.495 33.495 3.495 34 4 C33.28 10.72 33.28 10.72 32 12 C30.35 12 28.7 12 27 12 C27 8.37 27 4.74 27 1 C25.53046875 1.08378906 24.0609375 1.16757813 22.546875 1.25390625 C20.61460014 1.35708598 18.6823075 1.45993322 16.75 1.5625 C15.78191406 1.61857422 14.81382812 1.67464844 13.81640625 1.73242188 C12.41455078 1.80493164 12.41455078 1.80493164 10.984375 1.87890625 C9.69611816 1.94960327 9.69611816 1.94960327 8.38183594 2.02172852 C6.07335735 2.00066921 4.20243733 1.66206871 2 1 C1.67 1.99 1.34 2.98 1 4 C0.67 2.68 0.34 1.36 0 0 Z " fill="#646464" transform="translate(183,124)"/>
<path d="M0 0 C0.99 0.66 1.98 1.32 3 2 C5.27912938 2.45394552 5.27912938 2.45394552 7.6875 2.625 C8.49574219 2.69976562 9.30398437 2.77453125 10.13671875 2.8515625 C10.75160156 2.90054688 11.36648437 2.94953125 12 3 C12 5.64 12 8.28 12 11 C1.11 11 -9.78 11 -21 11 C-20.67 9.02 -20.34 7.04 -20 5 C-19.67 6.32 -19.34 7.64 -19 9 C-9.1 9 0.8 9 11 9 C11 7.68 11 6.36 11 5 C9.7625 5.0825 8.525 5.165 7.25 5.25 C3.89493302 5.2737948 3.24552096 5.19641677 0.5 3 C0.005 2.34 -0.49 1.68 -1 1 C-0.67 0.67 -0.34 0.34 0 0 Z " fill="#363636" transform="translate(58,145)"/>
<path d="M0 0 C0.33 0.66 0.66 1.32 1 2 C1.99 2.33 2.98 2.66 4 3 C-1.94 3.33 -7.88 3.66 -14 4 C-14.69867188 6.10761719 -15.39734375 8.21523438 -16.1171875 10.38671875 C-16.79862543 12.43884237 -17.48058651 14.49079143 -18.16259766 16.54272461 C-18.63449883 17.96344147 -19.10586015 19.38433777 -19.57666016 20.80541992 C-20.25539884 22.85383319 -20.9361081 24.90158274 -21.6171875 26.94921875 C-22.02565918 28.17987061 -22.43413086 29.41052246 -22.85498047 30.6784668 C-23.82518166 33.49287771 -24.86329213 36.24953217 -26 39 C-27.22702837 35.3189149 -26.62423489 34.00156023 -25.48828125 30.3359375 C-25.14216797 29.21316406 -24.79605469 28.09039062 -24.43945312 26.93359375 C-24.06755859 25.75925781 -23.69566406 24.58492187 -23.3125 23.375 C-22.95994141 22.22386719 -22.60738281 21.07273437 -22.24414062 19.88671875 C-20.21080893 13.36667525 -17.91679883 7.17597584 -15 1 C-10.05 0.67 -5.1 0.34 0 0 Z " fill="#333333" transform="translate(144,28)"/>
<path d="M0 0 C0 0.33 0 0.66 0 1 C-2.97 1 -5.94 1 -9 1 C-9 2.32 -9 3.64 -9 5 C-8.34 5 -7.68 5 -7 5 C-7 10.94 -7 16.88 -7 23 C-8.83553796 20.24669306 -9.40778129 18.88342796 -10.0703125 15.76953125 C-10.24433594 14.96708984 -10.41835937 14.16464844 -10.59765625 13.33789062 C-10.77167969 12.50451172 -10.94570312 11.67113281 -11.125 10.8125 C-11.30675781 9.96751953 -11.48851562 9.12253906 -11.67578125 8.25195312 C-12.12292753 6.1691928 -12.56222376 4.08474994 -13 2 C-14.65 1.67 -16.3 1.34 -18 1 C-18 0.67 -18 0.34 -18 0 C-11.26853564 -1.79321797 -6.6476565 -2.2158855 0 0 Z " fill="#EDEDED" transform="translate(180,122)"/>
<path d="M0 0 C0.99 0.33 1.98 0.66 3 1 C3.04898438 2.12019531 3.09796875 3.24039062 3.1484375 4.39453125 C3.22347856 5.86721203 3.29902582 7.33986707 3.375 8.8125 C3.4059375 9.55048828 3.436875 10.28847656 3.46875 11.04882812 C3.67346148 14.81893115 3.86433827 16.79650741 6 20 C9.58357241 20.25015873 9.58357241 20.25015873 13 20 C13 20.66 13 21.32 13 22 C11.56359829 22.19573608 10.12580496 22.38127816 8.6875 22.5625 C7.88699219 22.66691406 7.08648437 22.77132813 6.26171875 22.87890625 C4 23 4 23 1 22 C-0.20029908 19.59940183 -0.11459743 18.10639351 -0.09765625 15.4296875 C-0.09443359 14.53378906 -0.09121094 13.63789063 -0.08789062 12.71484375 C-0.07951172 11.77769531 -0.07113281 10.84054688 -0.0625 9.875 C-0.05798828 8.93011719 -0.05347656 7.98523438 -0.04882812 7.01171875 C-0.03702357 4.67441613 -0.02055759 2.33723939 0 0 Z " fill="#040404" transform="translate(144,8)"/>
<path d="M0 0 C0.66 0.33 1.32 0.66 2 1 C2.33 9.58 2.66 18.16 3 27 C1.68 27 0.36 27 -1 27 C-1.02886537 22.68751391 -1.04675255 18.37505238 -1.0625 14.0625 C-1.07087891 12.83080078 -1.07925781 11.59910156 -1.08789062 10.33007812 C-1.09111328 9.16025391 -1.09433594 7.99042969 -1.09765625 6.78515625 C-1.10289307 5.70113525 -1.10812988 4.61711426 -1.11352539 3.50024414 C-1 1 -1 1 0 0 Z " fill="#010101" transform="translate(101,3)"/>
<path d="M0 0 C0.99 0 1.98 0 3 0 C6.71734552 7.09176249 9.53736312 13.84310342 9 22 C8.34 22.99 7.68 23.98 7 25 C5.82882795 21.20970992 4.66382785 17.41755098 3.5 13.625 C3.16613281 12.54476562 2.83226563 11.46453125 2.48828125 10.3515625 C2.17246094 9.3203125 1.85664062 8.2890625 1.53125 7.2265625 C1.23798828 6.27346191 0.94472656 5.32036133 0.64257812 4.33837891 C0 2 0 2 0 0 Z " fill="#373737" transform="translate(78,68)"/>
<path d="M0 0 C1.32 0 2.64 0 4 0 C4.33 1.98 4.66 3.96 5 6 C3.68 6.33 2.36 6.66 1 7 C0.75765625 8.20398438 0.5153125 9.40796875 0.265625 10.6484375 C-0.07202749 12.22414913 -0.41061806 13.79965996 -0.75 15.375 C-0.90726563 16.1690625 -1.06453125 16.963125 -1.2265625 17.78125 C-2.5208965 23.65553507 -2.5208965 23.65553507 -5.140625 25.5390625 C-5.75421875 25.69117188 -6.3678125 25.84328125 -7 26 C-7.66 25.34 -8.32 24.68 -9 24 C-8.01 24 -7.02 24 -6 24 C-5.73445312 22.85402344 -5.46890625 21.70804688 -5.1953125 20.52734375 C-4.83863258 18.99737464 -4.48185663 17.46742791 -4.125 15.9375 C-3.86396484 14.80924805 -3.86396484 14.80924805 -3.59765625 13.65820312 C-2.52335236 9.06256983 -1.33465943 4.52702051 0 0 Z " fill="#E3E3E3" transform="translate(162,125)"/>
<path d="M0 0 C3.875 1.875 3.875 1.875 5 3 C5.203125 4.9609375 5.203125 4.9609375 5.25 7.375 C5.27578125 8.16648438 5.3015625 8.95796875 5.328125 9.7734375 C4.93070018 12.47024878 4.07493465 13.30729015 2 15 C2.39753821 16.46366342 2.81881384 17.9208935 3.25 19.375 C3.48203125 20.18710938 3.7140625 20.99921875 3.953125 21.8359375 C5.2214892 24.45785454 6.32423308 24.99382318 9 26 C9 28.31 9 30.62 9 33 C7 30 7 30 7 27 C6.236875 26.835 5.47375 26.67 4.6875 26.5 C1.17580315 24.53998315 0.72893402 22.66287127 -0.51953125 18.97265625 C-1 17 -1 17 -1 14 C-0.01 13.34 0.98 12.68 2 12 C2.670718 6.62709071 2.670718 6.62709071 0.5 2 C0.005 1.67 -0.49 1.34 -1 1 C-0.67 0.67 -0.34 0.34 0 0 Z " fill="#323232" transform="translate(217,123)"/>
<path d="M0 0 C2.01822917 0.06510417 4.03645833 0.13020833 6.0546875 0.1953125 C6.0546875 0.8553125 6.0546875 1.5153125 6.0546875 2.1953125 C5.0646875 2.1953125 4.0746875 2.1953125 3.0546875 2.1953125 C3.0546875 4.5053125 3.0546875 6.8153125 3.0546875 9.1953125 C2.0646875 8.8653125 1.0746875 8.5353125 0.0546875 8.1953125 C0.0546875 14.1353125 0.0546875 20.0753125 0.0546875 26.1953125 C-0.2753125 26.1953125 -0.6053125 26.1953125 -0.9453125 26.1953125 C-0.99429688 24.96554688 -1.04328125 23.73578125 -1.09375 22.46875 C-1.16882279 20.83591684 -1.24436865 19.20310538 -1.3203125 17.5703125 C-1.36671875 16.35794922 -1.36671875 16.35794922 -1.4140625 15.12109375 C-1.6406071 10.47692936 -2.2045793 6.56837394 -3.9453125 2.1953125 C-1.9453125 0.1953125 -1.9453125 0.1953125 0 0 Z " fill="#171717" transform="translate(143.9453125,-0.1953125)"/>
<path d="M0 0 C0.66 0 1.32 0 2 0 C3.28718413 4.07342047 4.5687739 8.14854571 5.84521484 12.2253418 C6.2802045 13.61189162 6.71671763 14.99796445 7.15478516 16.38354492 C7.7842914 18.37555392 8.4082939 20.36921559 9.03125 22.36328125 C9.40830078 23.56251221 9.78535156 24.76174316 10.17382812 25.99731445 C11 29 11 29 11 32 C13.31 32 15.62 32 18 32 C18 32.33 18 32.66 18 33 C15.36 33 12.72 33 10 33 C7.45262029 26.46303175 5.34277415 19.83889198 3.3125 13.125 C2.99216797 12.08085937 2.67183594 11.03671875 2.34179688 9.9609375 C2.03951172 8.96578125 1.73722656 7.970625 1.42578125 6.9453125 C1.01453003 5.59203857 1.01453003 5.59203857 0.5949707 4.21142578 C0 2 0 2 0 0 Z " fill="#343434" transform="translate(79,123)"/>
<path d="M0 0 C8.58 0 17.16 0 26 0 C26 0.33 26 0.66 26 1 C25.08476563 1.04898438 24.16953125 1.09796875 23.2265625 1.1484375 C22.03804687 1.22320312 20.84953125 1.29796875 19.625 1.375 C17.84996094 1.47941406 17.84996094 1.47941406 16.0390625 1.5859375 C12.89437681 1.70217346 12.89437681 1.70217346 11 4 C10.67 4.99 10.34 5.98 10 7 C9.46375 6.690625 8.9275 6.38125 8.375 6.0625 C5.6015043 4.82172561 2.99957163 4.4090325 0 4 C0 2.68 0 1.36 0 0 Z " fill="#ECECEC" transform="translate(39,31)"/>
<path d="M0 0 C0.598125 0.20625 1.19625 0.4125 1.8125 0.625 C1.29844831 5.59416636 0.57865118 9.91526351 -1.1875 14.625 C-4.2519906 11.5605094 -5.08004064 8.72108551 -5.5 4.4375 C-5.396875 3.509375 -5.29375 2.58125 -5.1875 1.625 C-2.1875 -0.375 -2.1875 -0.375 0 0 Z " fill="#F3F3F3" transform="translate(99.1875,109.375)"/>
<path d="M0 0 C1.32 0 2.64 0 4 0 C4.66 2.31 5.32 4.62 6 7 C5.34 7 4.68 7 4 7 C4.309375 7.928125 4.309375 7.928125 4.625 8.875 C4.74875 9.57625 4.8725 10.2775 5 11 C4.34 11.66 3.68 12.32 3 13 C3 12.01 3 11.02 3 10 C1.35 10 -0.3 10 -2 10 C-1.85950482 8.52031676 -1.71245174 7.04125484 -1.5625 5.5625 C-1.48128906 4.73878906 -1.40007812 3.91507813 -1.31640625 3.06640625 C-1 1 -1 1 0 0 Z " fill="#E0E0E0" transform="translate(163,131)"/>
<path d="M0 0 C2.02133576 3.03200363 2.88449999 5.44422119 3.9453125 8.91015625 C4.29980469 10.06451172 4.65429688 11.21886719 5.01953125 12.40820312 C5.38433594 13.61412109 5.74914062 14.82003906 6.125 16.0625 C6.68380859 17.87717773 6.68380859 17.87717773 7.25390625 19.72851562 C10 28.72624771 10 28.72624771 10 31 C9.01 30.67 8.02 30.34 7 30 C6.03271484 27.74682617 6.03271484 27.74682617 5.2109375 24.79296875 C4.90929687 23.73142578 4.60765625 22.66988281 4.296875 21.57617188 C3.99265625 20.45791016 3.6884375 19.33964844 3.375 18.1875 C2.90707031 16.52750977 2.90707031 16.52750977 2.4296875 14.83398438 C1.60420742 11.8932116 0.7913205 8.95013661 0 6 C-0.2170459 5.26563721 -0.4340918 4.53127441 -0.65771484 3.7746582 C-1 2 -1 2 0 0 Z " fill="#414141" transform="translate(67,80)"/>
<path d="M0 0 C0.66 0.33 1.32 0.66 2 1 C2.91918422 4.18179152 3.31001634 6.1806711 2.125 9.3125 C-1.22238455 11.97071715 -4.81815429 11.97070511 -9 12 C-12.0625 11.5625 -12.0625 11.5625 -14 11 C-14 9.68 -14 8.36 -14 7 C-10.125 7.875 -10.125 7.875 -9 9 C-6.04195427 9.33340471 -6.04195427 9.33340471 -3 9 C-0.87491756 5.81237635 -0.4979837 3.73487777 0 0 Z " fill="#242424" transform="translate(123,19)"/>
<path d="M0 0 C0.66 0 1.32 0 2 0 C2.69937202 1.4317616 3.38412718 2.87067032 4.0625 4.3125 C4.63677734 5.51326172 4.63677734 5.51326172 5.22265625 6.73828125 C6 9 6 9 5 12 C2.03 11.505 2.03 11.505 -1 11 C-1.02688151 9.35425434 -1.04634123 7.70838587 -1.0625 6.0625 C-1.07410156 5.14597656 -1.08570313 4.22945312 -1.09765625 3.28515625 C-1 1 -1 1 0 0 Z " fill="#545454" transform="translate(179,138)"/>
<path d="M0 0 C0.33 0.99 0.66 1.98 1 3 C0.67 3.66 0.34 4.32 0 5 C1.32 5.66 2.64 6.32 4 7 C1 9 1 9 -1 9 C0.15173355 11.46800047 1.04783565 13.04783565 3 15 C2.01 15.33 1.02 15.66 0 16 C0.33 17.65 0.66 19.3 1 21 C-1.28363378 18.71636622 -1.7152849 17.25204532 -2.625 14.1875 C-2.88539062 13.33542969 -3.14578125 12.48335937 -3.4140625 11.60546875 C-4.01494456 8.93354654 -4.24789803 6.72687829 -4 4 C-2 1.6875 -2 1.6875 0 0 Z " fill="#161616" transform="translate(77,45)"/>
<path d="M0 0 C2.64 0 5.28 0 8 0 C8 0.66 8 1.32 8 2 C7.01 2 6.02 2 5 2 C5.01047363 2.55985596 5.02094727 3.11971191 5.03173828 3.6965332 C5.07333326 6.23514307 5.09933685 8.7736812 5.125 11.3125 C5.14175781 12.19357422 5.15851563 13.07464844 5.17578125 13.98242188 C5.18222656 14.82998047 5.18867188 15.67753906 5.1953125 16.55078125 C5.20578613 17.33106689 5.21625977 18.11135254 5.22705078 18.9152832 C5 21 5 21 3 24 C3 16.74 3 9.48 3 2 C2.01 2 1.02 2 0 2 C0 1.34 0 0.68 0 0 Z " fill="#060606" transform="translate(155,0)"/>
<path d="M0 0 C3 1 3 1 4.6875 4.3125 C6 8 6 8 6 12 C3.03 11.505 3.03 11.505 0 11 C0 7.37 0 3.74 0 0 Z " fill="#4B4B4B" transform="translate(210,138)"/>
<path d="M0 0 C0 5.61 0 11.22 0 17 C-5.15217391 10.13043478 -5.15217391 10.13043478 -4.8125 5.375 C-4.04618949 3.13501544 -2.80401743 0 0 0 Z " fill="#F2F2F2" transform="translate(190,128)"/>
<path d="M0 0 C2.21535684 4.43071369 1.90588867 5.47387462 0.44726562 9.99023438 C0.19654297 10.71533203 -0.05417969 11.44042969 -0.3125 12.1875 C-0.55162109 12.92419922 -0.79074219 13.66089844 -1.03710938 14.41992188 C-2.8208598 19.8208598 -2.8208598 19.8208598 -4 21 C-6.67058851 21.14115161 -9.32432238 21.04247107 -12 21 C-12 20.67 -12 20.34 -12 20 C-10.02 19.67 -8.04 19.34 -6 19 C-4.02 12.73 -2.04 6.46 0 0 Z " fill="#4C4C4C" transform="translate(102,134)"/>
<path d="M0 0 C0.99 0 1.98 0 3 0 C3.33 1.65 3.66 3.3 4 5 C3.34 5 2.68 5 2 5 C2.33 6.65 2.66 8.3 3 10 C-2.28 10 -7.56 10 -13 10 C-13 9.34 -13 8.68 -13 8 C-8.38 8 -3.76 8 1 8 C0.67 5.36 0.34 2.72 0 0 Z " fill="#2E2E2E" transform="translate(107,21)"/>
<path d="M0 0 C0.66 0 1.32 0 2 0 C2 2.97 2 5.94 2 9 C1.34 9 0.68 9 0 9 C-0.33 8.34 -0.66 7.68 -1 7 C-2.65 6.67 -4.3 6.34 -6 6 C-6 9.63 -6 13.26 -6 17 C-6.33 17 -6.66 17 -7 17 C-7.02686553 15.02090602 -7.04633375 13.04171029 -7.0625 11.0625 C-7.07410156 9.96035156 -7.08570313 8.85820312 -7.09765625 7.72265625 C-7 5 -7 5 -6 4 C-4.33382885 3.95936168 -2.66611905 3.957279 -1 4 C-0.67 2.68 -0.34 1.36 0 0 Z " fill="#B2B2B2" transform="translate(202,132)"/>
<path d="M0 0 C1.29065057 3.8719517 0.22324098 6.44232601 -0.9375 10.1875 C-1.13279297 10.84169922 -1.32808594 11.49589844 -1.52929688 12.16992188 C-2.01182563 13.78227407 -2.50490205 15.39146289 -3 17 C-4.65 17 -6.3 17 -8 17 C-8.66 15.68 -9.32 14.36 -10 13 C-8.02 13.66 -6.04 14.32 -4 15 C-3.87882813 14.25234375 -3.75765625 13.5046875 -3.6328125 12.734375 C-3.46523437 11.74953125 -3.29765625 10.7646875 -3.125 9.75 C-2.96257812 8.77546875 -2.80015625 7.8009375 -2.6328125 6.796875 C-2.05144152 4.22735883 -1.29159735 2.27928944 0 0 Z " fill="#373737" transform="translate(159,132)"/>
<path d="M0 0 C2.9603645 3.36405057 4.03380551 6.65212478 5 11 C4.67 11.66 4.34 12.32 4 13 C3.34 13 2.68 13 2 13 C1.32880451 11.5437455 0.66318193 10.08492133 0 8.625 C-0.556875 7.40683594 -0.556875 7.40683594 -1.125 6.1640625 C-2 4 -2 4 -2 2 C-2.66 1.67 -3.32 1.34 -4 1 C-2.68 0.67 -1.36 0.34 0 0 Z " fill="#E6E6E6" transform="translate(183,136)"/>
<path d="M0 0 C2 3 2 3 1.70800781 4.96118164 C1.45889648 5.68684326 1.20978516 6.41250488 0.953125 7.16015625 C0.5509375 8.3502832 0.5509375 8.3502832 0.140625 9.56445312 C-0.30023438 10.80098633 -0.30023438 10.80098633 -0.75 12.0625 C-1.0284375 12.89072266 -1.306875 13.71894531 -1.59375 14.57226562 C-3.71189829 20.71189829 -3.71189829 20.71189829 -6 23 C-5.50387003 14.89654389 -2.679915 7.59474067 0 0 Z " fill="#404040" transform="translate(119,83)"/>
<path d="M0 0 C0.33 0.99 0.66 1.98 1 3 C-2.06246747 4.78409802 -4.22079273 5.22880021 -7.75 5.125 C-8.54921875 5.10695312 -9.3484375 5.08890625 -10.171875 5.0703125 C-10.77515625 5.04710937 -11.3784375 5.02390625 -12 5 C-12 6.98 -12 8.96 -12 11 C-12.66 10.67 -13.32 10.34 -14 10 C-14.04254356 8.00045254 -14.04080783 5.99958364 -14 4 C-11.88547762 1.88547762 -7.43004574 2.55438351 -4.56640625 2.37890625 C-1.8393833 2.23688035 -1.8393833 2.23688035 0 0 Z " fill="#363636" transform="translate(131,145)"/>
<path d="M0 0 C0.66 0 1.32 0 2 0 C2 7.59 2 15.18 2 23 C-2.8 20.6 -2.8 20.6 -4 17 C-3.505 15.515 -3.505 15.515 -3 14 C-1 17 -1 17 -1 20 C-0.34 20 0.32 20 1 20 C0.67 13.4 0.34 6.8 0 0 Z " fill="#161616" transform="translate(190,126)"/>
<path d="M0 0 C0.66 0 1.32 0 2 0 C2.8125 2.125 2.8125 2.125 3 5 C1.57113621 7.35569435 -0.05061284 9.00419886 -2 11 C-2.33 11 -2.66 11 -3 11 C-3 8.03 -3 5.06 -3 2 C-2.01 2 -1.02 2 0 2 C0 1.34 0 0.68 0 0 Z " fill="#353535" transform="translate(181,124)"/>
<path d="M0 0 C2.31 0.66 4.62 1.32 7 2 C7 3.32 7 4.64 7 6 C4.69 6 2.38 6 0 6 C-0.66 4.68 -1.32 3.36 -2 2 C-1.34 2 -0.68 2 0 2 C0 1.34 0 0.68 0 0 Z " fill="#F5F5F5" transform="translate(217,148)"/>
<path d="M0 0 C0.99 0 1.98 0 3 0 C3.33 0.99 3.66 1.98 4 3 C4.99 3.33 5.98 3.66 7 4 C6.67 5.32 6.34 6.64 6 8 C4.02 8 2.04 8 0 8 C0 5.36 0 2.72 0 0 Z " fill="#F1F1F1" transform="translate(197,139)"/>
<path d="M0 0 C0.33 0 0.66 0 1 0 C1.48828125 1.98567708 1.9765625 3.97135417 2.46484375 5.95703125 C2.91010705 7.65683202 3.44433985 9.33301954 4 11 C4.99 10.34 5.98 9.68 7 9 C6.67 11.31 6.34 13.62 6 16 C5.01 16 4.02 16 3 16 C2.29695778 14.27709395 1.61316509 12.54632534 0.9375 10.8125 C0.55464844 9.84957031 0.17179687 8.88664062 -0.22265625 7.89453125 C-1.05622133 4.79065325 -0.88679818 3.05080883 0 0 Z " fill="#3B3B3B" transform="translate(93,111)"/>
<path d="M0 0 C1.1484375 1.484375 1.1484375 1.484375 2 4 C1.33545663 6.87776173 0.59384863 9.480463 -0.375 12.25 C-0.6225 12.99507812 -0.87 13.74015625 -1.125 14.5078125 C-1.73673477 16.34301681 -2.36662876 18.17215013 -3 20 C-4.1484375 18.515625 -4.1484375 18.515625 -5 16 C-4.33545663 13.12223827 -3.59384863 10.519537 -2.625 7.75 C-2.3775 7.00492187 -2.13 6.25984375 -1.875 5.4921875 C-1.26326523 3.65698319 -0.63337124 1.82784987 0 0 Z " fill="#4C4C4C" transform="translate(104,102)"/>
<path d="M0 0 C0.33 0 0.66 0 1 0 C1.33 6.93 1.66 13.86 2 21 C0.68 20.67 -0.64 20.34 -2 20 C-2.33 17.36 -2.66 14.72 -3 12 C-2.34 12.66 -1.68 13.32 -1 14 C-0.67 9.38 -0.34 4.76 0 0 Z " fill="#393939" transform="translate(173,128)"/>
<path d="M0 0 C0.99 0.33 1.98 0.66 3 1 C5.44853095 6.3867681 4.80393772 9.58818685 3 15 C2.34 15 1.68 15 1 15 C0.67 14.01 0.34 13.02 0 12 C0.66 12 1.32 12 2 12 C1.85831863 10.56208484 1.71148957 9.1246763 1.5625 7.6875 C1.48128906 6.88699219 1.40007812 6.08648437 1.31640625 5.26171875 C1.04734307 2.83912821 1.04734307 2.83912821 0 0 Z " fill="#F0F0F0" transform="translate(166,137)"/>
<path d="M0 0 C4.95 0 9.9 0 15 0 C15 1.32 15 2.64 15 4 C13.02 4 11.04 4 9 4 C8.67 3.01 8.34 2.02 8 1 C5.36 1 2.72 1 0 1 C0 0.67 0 0.34 0 0 Z " fill="#F2F2F2" transform="translate(147,31)"/>
<path d="M0 0 C0 3.3 0 6.6 0 10 C-0.33 10 -0.66 10 -1 10 C-1.33 8.02 -1.66 6.04 -2 4 C-2.33 8.62 -2.66 13.24 -3 18 C-3.33 18 -3.66 18 -4 18 C-4.33 12.72 -4.66 7.44 -5 2 C-1 0 -1 0 0 0 Z " fill="#C7C7C7" transform="translate(210,126)"/>
<path d="M0 0 C2.00720923 0.28674418 4.0085944 0.61866701 6 1 C5.25 3.4375 5.25 3.4375 4 6 C1.875 6.8125 1.875 6.8125 0 7 C-0.38133299 5.0085944 -0.71325582 3.00720923 -1 1 C-0.67 0.67 -0.34 0.34 0 0 Z " fill="#E7E7E7" transform="translate(73,41)"/>
<path d="M0 0 C2.375 -0.125 2.375 -0.125 5 0 C7 2 7 2 7.1953125 3.9453125 C7.13020833 5.96354167 7.06510417 7.98177083 7 10 C6.01 10.33 5.02 10.66 4 11 C4.0825 10.113125 4.165 9.22625 4.25 8.3125 C3.94791837 4.30991841 2.70272533 2.87164566 0 0 Z " fill="#EFEFEF" transform="translate(213,125)"/>
<path d="M0 0 C0 0.33 0 0.66 0 1 C-1.41633336 1.16947579 -2.83308533 1.33545507 -4.25 1.5 C-5.43335938 1.63921875 -5.43335938 1.63921875 -6.640625 1.78125 C-10.63026701 2.15115058 -14.11528269 1.86327051 -18 1 C-18 0.67 -18 0.34 -18 0 C-11.26853564 -1.79321797 -6.6476565 -2.2158855 0 0 Z " fill="#DDDDDD" transform="translate(180,122)"/>
<path d="M0 0 C1.65 0 3.3 0 5 0 C5 3.63 5 7.26 5 11 C4.01 11.495 4.01 11.495 3 12 C1.57499941 8.00999834 0.59924224 4.19469571 0 0 Z " fill="#DADADA" transform="translate(104,2)"/>
<path d="M0 0 C-0.33 0.99 -0.66 1.98 -1 3 C-3.75078884 3.91692961 -5.35948913 4.10886083 -8.1875 4.0625 C-10.0746875 4.0315625 -10.0746875 4.0315625 -12 4 C-12.33 5.32 -12.66 6.64 -13 8 C-13 6.02 -13 4.04 -13 2 C-12.06027344 1.90912109 -12.06027344 1.90912109 -11.1015625 1.81640625 C-9.87566406 1.69072266 -9.87566406 1.69072266 -8.625 1.5625 C-7.81289063 1.48128906 -7.00078125 1.40007812 -6.1640625 1.31640625 C-3.85304959 0.97851447 -2.33455672 0 0 0 Z " fill="#363636" transform="translate(50,146)"/>
<path d="M0 0 C3.34881047 2.71094181 4.59869291 5.99626547 6 10 C6.1875 13.9375 6.1875 13.9375 6 17 C3.38832897 14.38832897 2.92868518 12.0278941 1.875 8.5 C1.52179688 7.3346875 1.16859375 6.169375 0.8046875 4.96875 C0 2 0 2 0 0 Z " fill="#C6C6C6" transform="translate(80,69)"/>
<path d="M0 0 C0.66 0 1.32 0 2 0 C2 0.66 2 1.32 2 2 C3.32 2.66 4.64 3.32 6 4 C6 5.65 6 7.3 6 9 C5.34 8.01 4.68 7.02 4 6 C3.67 7.65 3.34 9.3 3 11 C2.566875 10.1028125 2.566875 10.1028125 2.125 9.1875 C0.95257974 6.80672208 0.95257974 6.80672208 -1 4 C-0.34 4 0.32 4 1 4 C0.67 2.68 0.34 1.36 0 0 Z " fill="#2F2F2F" transform="translate(120,14)"/>
<path d="M0 0 C1.32 0.33 2.64 0.66 4 1 C2.02 3.97 0.04 6.94 -2 10 C-3.32 9.67 -4.64 9.34 -6 9 C-4.73046875 7.53515625 -3.4609375 6.0703125 -2.19140625 4.60546875 C-0.79128769 2.89287029 -0.79128769 2.89287029 0 0 Z " fill="#E1E1E1" transform="translate(185,125)"/>
<path d="M0 0 C2 1 2 1 2.8515625 3.50390625 C3.10679688 4.51324219 3.36203125 5.52257812 3.625 6.5625 C3.88539062 7.57441406 4.14578125 8.58632812 4.4140625 9.62890625 C4.60742188 10.41136719 4.80078125 11.19382812 5 12 C2.525 11.01 2.525 11.01 0 10 C0 6.7 0 3.4 0 0 Z " fill="#E0E0E0" transform="translate(59,62)"/>
<path d="M0 0 C0.99 0 1.98 0 3 0 C3 2.64 3 5.28 3 8 C1.66666667 8 0.33333333 8 -1 8 C-0.67 5.36 -0.34 2.72 0 0 Z " fill="#333333" transform="translate(130,50)"/>
<path d="M0 0 C0.66 0.33 1.32 0.66 2 1 C1.1875 3.4375 1.1875 3.4375 0 6 C-0.99 6.33 -1.98 6.66 -3 7 C-3.66 6.34 -4.32 5.68 -5 5 C-5 4.01 -5 3.02 -5 2 C-2.625 0.9375 -2.625 0.9375 0 0 Z " fill="#E0E0E0" transform="translate(81,52)"/>
<path d="M0 0 C0.5259375 0.7425 0.5259375 0.7425 1.0625 1.5 C3.94374289 3.73063966 6.47009026 3.19980621 10 3 C10 3.66 10 4.32 10 5 C8.56359829 5.19573608 7.12580496 5.38127816 5.6875 5.5625 C4.88699219 5.66691406 4.08648437 5.77132813 3.26171875 5.87890625 C1 6 1 6 -2 5 C-2.33 4.01 -2.66 3.02 -3 2 C-2.01 2 -1.02 2 0 2 C0 1.34 0 0.68 0 0 Z " fill="#0D0D0D" transform="translate(147,25)"/>
<path d="M0 0 C3.3 0 6.6 0 10 0 C9.67 1.32 9.34 2.64 9 4 C5.30581799 4 3.22163822 2.71820705 0 1 C0 0.67 0 0.34 0 0 Z " fill="#E3E3E3" transform="translate(78,2)"/>
<path d="M0 0 C0.99 0 1.98 0 3 0 C3.33 1.98 3.66 3.96 4 6 C2.35 6 0.7 6 -1 6 C-0.67 4.02 -0.34 2.04 0 0 Z " fill="#DCDCDC" transform="translate(162,142)"/>
<path d="M0 0 C1.65 0 3.3 0 5 0 C5.33 0.66 5.66 1.32 6 2 C5.34 2 4.68 2 4 2 C3.67 3.32 3.34 4.64 3 6 C2.01 6 1.02 6 0 6 C0 4.02 0 2.04 0 0 Z " fill="#E9E9E9" transform="translate(197,128)"/>
<path d="M0 0 C1.32 0.33 2.64 0.66 4 1 C4 2.65 4 4.3 4 6 C2.68 6.33 1.36 6.66 0 7 C0 4.69 0 2.38 0 0 Z " fill="#DADADA" transform="translate(211,127)"/>
<path d="M0 0 C4.62 0 9.24 0 14 0 C12.515 1.485 12.515 1.485 11 3 C8.6875 2.75 8.6875 2.75 6 2 C4.00102872 1.66055205 2.00124361 1.32578384 0 1 C0 0.67 0 0.34 0 0 Z " fill="#E1E1E1" transform="translate(196,125)"/>
<path d="M0 0 C0.99 0.495 0.99 0.495 2 1 C2.33 6.61 2.66 12.22 3 18 C2.34 18 1.68 18 1 18 C0.67 18.66 0.34 19.32 0 20 C0 13.4 0 6.8 0 0 Z " fill="#D0D0D0" transform="translate(99,82)"/>
<path d="M0 0 C1.98 0 3.96 0 6 0 C6 1.98 6 3.96 6 6 C2.7169902 7.6415049 -0.42545033 6.51888624 -4 6 C-4 5.67 -4 5.34 -4 5 C-1.36 5 1.28 5 4 5 C4 3.68 4 2.36 4 1 C2.68 0.67 1.36 0.34 0 0 Z " fill="#494949" transform="translate(158,30)"/>
<path d="M0 0 C1.32 0.33 2.64 0.66 4 1 C4 1.66 4 2.32 4 3 C4.66 3 5.32 3 6 3 C6.33 3.99 6.66 4.98 7 6 C4.69 5.67 2.38 5.34 0 5 C0 3.35 0 1.7 0 0 Z " fill="#202020" transform="translate(0,0)"/>
<path d="M0 0 C2 2 2 2 2.125 5.125 C2.08375 6.07375 2.0425 7.0225 2 8 C0.68 8 -0.64 8 -2 8 C-1.125 1.125 -1.125 1.125 0 0 Z " fill="#2D2D2D" transform="translate(163,131)"/>
<path d="M0 0 C1.32 0 2.64 0 4 0 C4.33 1.98 4.66 3.96 5 6 C4.01 6 3.02 6 2 6 C2 5.34 2 4.68 2 4 C1.34 4 0.68 4 0 4 C0 2.68 0 1.36 0 0 Z " fill="#F1F1F1" transform="translate(162,125)"/>
<path d="M0 0 C1.134375 0.020625 2.26875 0.04125 3.4375 0.0625 C3.4375 1.0525 3.4375 2.0425 3.4375 3.0625 C2.4475 3.7225 1.4575 4.3825 0.4375 5.0625 C-1.2125 3.7425 -2.8625 2.4225 -4.5625 1.0625 C-3.5625 0.0625 -3.5625 0.0625 0 0 Z " fill="#F5F5F5" transform="translate(219.5625,119.9375)"/>
<path d="M0 0 C1.485 0.99 1.485 0.99 3 2 C5.27912938 2.45394552 5.27912938 2.45394552 7.6875 2.625 C8.49574219 2.69976562 9.30398437 2.77453125 10.13671875 2.8515625 C10.75160156 2.90054688 11.36648437 2.94953125 12 3 C12 3.33 12 3.66 12 4 C8.98735648 4.59222907 6.07583023 5.05823431 3 5 C0.4375 3.0625 0.4375 3.0625 -1 1 C-0.67 0.67 -0.34 0.34 0 0 Z " fill="#484848" transform="translate(58,145)"/>
<path d="M0 0 C1.65 0 3.3 0 5 0 C5 3.63 5 7.26 5 11 C4.67 11 4.34 11 4 11 C4 8.69 4 6.38 4 4 C3.34 4 2.68 4 2 4 C1.34 2.68 0.68 1.36 0 0 Z " fill="#C8C8C8" transform="translate(191,125)"/>
<path d="M0 0 C1.98 1.65 3.96 3.3 6 5 C5.67 5.66 5.34 6.32 5 7 C4.34 7 3.68 7 3 7 C3.33 8.65 3.66 10.3 4 12 C1.57869669 9.57869669 1.47159496 8.19888623 0.875 4.875 C0.70742187 3.96492188 0.53984375 3.05484375 0.3671875 2.1171875 C0.24601562 1.41851562 0.12484375 0.71984375 0 0 Z " fill="#292929" transform="translate(74,54)"/>
<path d="M0 0 C3.0625 0.125 3.0625 0.125 5.0625 1.125 C4.0625 3.125 4.0625 3.125 1.6875 3.9375 C-0.9375 4.125 -0.9375 4.125 -2.75 2.6875 C-3.141875 2.171875 -3.53375 1.65625 -3.9375 1.125 C-2.9375 0.125 -2.9375 0.125 0 0 Z " fill="#E1E1E1" transform="translate(115.9375,1.875)"/>
<path d="M0 0 C2.35953094 2.35953094 2.49141413 3.77895617 3 7 C1.68 7.33 0.36 7.66 -1 8 C-1.625 5.125 -1.625 5.125 -2 2 C-1.34 1.34 -0.68 0.68 0 0 Z " fill="#DCDCDC" transform="translate(217,142)"/>
<path d="M0 0 C1.67542976 0.28604898 3.34385343 0.61781233 5 1 C3.68 1.33 2.36 1.66 1 2 C0.67 4.31 0.34 6.62 0 9 C-0.66 9 -1.32 9 -2 9 C-1.125 1.125 -1.125 1.125 0 0 Z " fill="#505050" transform="translate(161,123)"/>
<path d="M0 0 C2.64 0 5.28 0 8 0 C8 0.66 8 1.32 8 2 C7.01 2 6.02 2 5 2 C4.67 2.99 4.34 3.98 4 5 C3.67 4.01 3.34 3.02 3 2 C2.01 2 1.02 2 0 2 C0 1.34 0 0.68 0 0 Z " fill="#232323" transform="translate(155,0)"/>
<path d="M0 0 C0.99 0.495 0.99 0.495 2 1 C3.27536232 6.44927536 3.27536232 6.44927536 2 9 C1.34 9 0.68 9 0 9 C0 6.03 0 3.06 0 0 Z " fill="#0D0D0D" transform="translate(123,19)"/>
<path d="M0 0 C0.66 0.66 1.32 1.32 2 2 C1.34 3.65 0.68 5.3 0 7 C-1.32 6.67 -2.64 6.34 -4 6 C-3.0022242 3.00667261 -2.2477975 2.05233685 0 0 Z " fill="#121212" transform="translate(126,1)"/>
<path d="M0 0 C1.13643966 3.40931897 0.86747764 4.00335456 -0.4375 7.1875 C-0.86869141 8.26064453 -0.86869141 8.26064453 -1.30859375 9.35546875 C-1.53675781 9.89816406 -1.76492187 10.44085938 -2 11 C-2.33 11 -2.66 11 -3 11 C-2.53199289 6.94393835 -2.12046792 3.53411321 0 0 Z " fill="#333333" transform="translate(106,125)"/>
<path d="M0 0 C2.31 0 4.62 0 7 0 C7 0.66 7 1.32 7 2 C6.34 2 5.68 2 5 2 C4.67 2.66 4.34 3.32 4 4 C3.34 4 2.68 4 2 4 C2 3.34 2 2.68 2 2 C1.34 2 0.68 2 0 2 C0 1.34 0 0.68 0 0 Z " fill="#C9C9C9" transform="translate(173,124)"/>
<path d="M0 0 C1.9375 0.8125 1.9375 0.8125 4 2 C5.09658936 5.28976808 4.79953138 6.71303767 4 10 C3.67 10 3.34 10 3 10 C2.71125 8.88625 2.4225 7.7725 2.125 6.625 C1.30758671 2.99708908 1.30758671 2.99708908 -1 1 C-0.67 0.67 -0.34 0.34 0 0 Z " fill="#5A5A5A" transform="translate(217,123)"/>
<path d="M0 0 C0.66 1.32 1.32 2.64 2 4 C-0.475 5.485 -0.475 5.485 -3 7 C-2.625 4.0625 -2.625 4.0625 -2 1 C-1.34 0.67 -0.68 0.34 0 0 Z " fill="#ECECEC" transform="translate(122,59)"/>
<path d="M0 0 C2.97 0.33 5.94 0.66 9 1 C8.67 1.99 8.34 2.98 8 4 C7.01 4 6.02 4 5 4 C4.67 4.66 4.34 5.32 4 6 C4.33 4.35 4.66 2.7 5 1 C3.35 1 1.7 1 0 1 C0 0.67 0 0.34 0 0 Z " fill="#343434" transform="translate(104,1)"/>
<path d="M0 0 C0.66 1.32 1.32 2.64 2 4 C1.34 4.66 0.68 5.32 0 6 C0 5.01 0 4.02 0 3 C-1.65 3 -3.3 3 -5 3 C-5 2.34 -5 1.68 -5 1 C-3.35 0.67 -1.7 0.34 0 0 Z " fill="#B7B7B7" transform="translate(166,138)"/>
<path d="M0 0 C1.875 0.3125 1.875 0.3125 4 1 C4.66 1.99 5.32 2.98 6 4 C4.02 4 2.04 4 0 4 C0 2.68 0 1.36 0 0 Z " fill="#141414" transform="translate(109,26)"/>
<path d="M0 0 C0.66 0 1.32 0 2 0 C1.67 2.31 1.34 4.62 1 7 C-0.65 5.35 -2.3 3.7 -4 2 C-2.68 2 -1.36 2 0 2 C0 1.34 0 0.68 0 0 Z " fill="#181818" transform="translate(78,7)"/>
<path d="M0 0 C0.99 0 1.98 0 3 0 C3.33 1.32 3.66 2.64 4 4 C3.01 4 2.02 4 1 4 C0.67 5.32 0.34 6.64 0 8 C0 5.36 0 2.72 0 0 Z " fill="#D9D9D9" transform="translate(197,139)"/>
<path d="M0 0 C0.66 0 1.32 0 2 0 C2.33 1.65 2.66 3.3 3 5 C1.68 5.33 0.36 5.66 -1 6 C-0.67 4.02 -0.34 2.04 0 0 Z " fill="#4B4B4B" transform="translate(181,124)"/>
<path d="M0 0 C1.64826111 2.96687001 2.44271087 5.65626525 3 9 C2.01 8.67 1.02 8.34 0 8 C-1.125 2.25 -1.125 2.25 0 0 Z " fill="#525252" transform="translate(74,102)"/>
<path d="M0 0 C1.125 1.625 1.125 1.625 2 4 C1.125 7.25 1.125 7.25 0 10 C-1.125 8.375 -1.125 8.375 -2 6 C-1.125 2.75 -1.125 2.75 0 0 Z " fill="#4D4D4D" transform="translate(112,78)"/>
<path d="M0 0 C0.33 0 0.66 0 1 0 C1 1.65 1 3.3 1 5 C1.66 5.33 2.32 5.66 3 6 C3 6.66 3 7.32 3 8 C1.35 8.33 -0.3 8.66 -2 9 C-1.34 6.03 -0.68 3.06 0 0 Z " fill="#DDDDDD" transform="translate(126,20)"/>
<path d="M0 0 C0.66 0 1.32 0 2 0 C1.67 2.31 1.34 4.62 1 7 C0.34 7 -0.32 7 -1 7 C-0.67 4.69 -0.34 2.38 0 0 Z " fill="#090909" transform="translate(109,5)"/>
</svg>
